<svg width="338" height="70" viewBox="0 0 338 70" fill="none" xmlns="http://www.w3.org/2000/svg">
<path d="M49.8545 8.51562C48.5743 8.51562 47.374 8.86121 46.3389 9.46156V6.75781C46.3389 5.78703 45.5519 5 44.5811 5H16.4561C15.4852 5 14.6982 5.78703 14.6982 6.75781V9.48301C13.6548 8.8693 12.4409 8.51562 11.1454 8.51562C7.26836 8.51562 4.11414 11.6698 4.11414 15.5469C4.11414 18.5041 4.99046 21.3615 6.64832 23.8102C9.47066 27.9789 12.951 29.0607 15.8309 30.2127C17.4914 34.348 20.8494 37.6252 25.0383 39.1769L23.7421 47.4219H23.4873C20.5796 47.4219 18.2139 49.7875 18.2139 52.6953V61.4844H16.4561C15.4853 61.4844 14.6983 62.2714 14.6983 63.2422C14.6983 64.213 15.4853 65 16.4561 65H44.5811C45.5519 65 46.3389 64.213 46.3389 63.2422C46.3389 62.2714 45.5519 61.4844 44.5811 61.4844H42.8233V52.6953C42.8233 49.7875 40.4576 47.4219 37.5498 47.4219H37.2951L35.999 39.177C40.1939 37.623 43.5557 34.3386 45.2138 30.1948C47.9343 29.1066 51.5004 28.0217 54.3517 23.8102C56.0096 21.3615 56.8859 18.504 56.8859 15.5469C56.8858 11.6698 53.7316 8.51562 49.8545 8.51562ZM14.6852 25.968C10.3991 24.2536 7.62976 20.1631 7.62976 15.5469C7.62976 13.6084 9.20687 12.0312 11.1454 12.0312C13.0839 12.0312 14.661 13.6084 14.661 15.5469C14.661 15.6705 14.674 15.791 14.6983 15.9073V24.3359C14.6983 24.9009 14.7286 25.4588 14.7868 26.0087L14.6852 25.968ZM39.3077 61.4844H21.7295V57.9688H39.3077V61.4844ZM37.5498 50.9375C38.5191 50.9375 39.3077 51.7261 39.3077 52.6953V54.4531H21.7295V52.6953C21.7295 51.7261 22.5181 50.9375 23.4873 50.9375C24.441 50.9375 35.3133 50.9375 37.5498 50.9375ZM27.3009 47.4219L28.4641 40.023C29.1367 40.1107 29.8224 40.1562 30.5186 40.1562C31.2148 40.1562 31.9005 40.1105 32.5731 40.023L33.7363 47.4219H27.3009ZM42.8233 24.3359C42.8233 31.1207 37.3034 36.6406 30.5186 36.6406C23.7338 36.6406 18.2139 31.1207 18.2139 24.3359V15.5469H42.8233V24.3359ZM42.8233 12.0312H18.2139V8.51562H42.8233V12.0312ZM46.3146 25.968L46.2522 25.993C46.3091 25.4483 46.3388 24.8955 46.3388 24.3359V15.5469C46.3389 13.6084 47.916 12.0312 49.8545 12.0312C51.793 12.0312 53.3702 13.6084 53.3702 15.5469C53.3702 20.1631 50.6008 24.2537 46.3146 25.968Z" fill="#242424"/>
<path d="M86.7 10.55V28H83.2V20.575H75.725V28H72.225V10.55H75.725V17.725H83.2V10.55H86.7ZM91.9199 12.5C91.3033 12.5 90.7866 12.3083 90.3699 11.925C89.9699 11.525 89.7699 11.0333 89.7699 10.45C89.7699 9.86667 89.9699 9.38333 90.3699 9C90.7866 8.6 91.3033 8.4 91.9199 8.4C92.5366 8.4 93.0449 8.6 93.4449 9C93.8616 9.38333 94.0699 9.86667 94.0699 10.45C94.0699 11.0333 93.8616 11.525 93.4449 11.925C93.0449 12.3083 92.5366 12.5 91.9199 12.5ZM93.6449 14.15V28H90.1449V14.15H93.6449ZM102.528 13.925C103.561 13.925 104.47 14.1333 105.253 14.55C106.036 14.95 106.653 15.475 107.103 16.125V14.15H110.628V28.1C110.628 29.3833 110.37 30.525 109.853 31.525C109.336 32.5417 108.561 33.3417 107.528 33.925C106.495 34.525 105.245 34.825 103.778 34.825C101.811 34.825 100.195 34.3667 98.9279 33.45C97.6779 32.5333 96.9696 31.2833 96.8029 29.7H100.278C100.461 30.3333 100.853 30.8333 101.453 31.2C102.07 31.5833 102.811 31.775 103.678 31.775C104.695 31.775 105.52 31.4667 106.153 30.85C106.786 30.25 107.103 29.3333 107.103 28.1V25.95C106.653 26.6 106.028 27.1417 105.228 27.575C104.445 28.0083 103.545 28.225 102.528 28.225C101.361 28.225 100.295 27.925 99.3279 27.325C98.3613 26.725 97.5946 25.8833 97.0279 24.8C96.4779 23.7 96.2029 22.4417 96.2029 21.025C96.2029 19.625 96.4779 18.3833 97.0279 17.3C97.5946 16.2167 98.3529 15.3833 99.3029 14.8C100.27 14.2167 101.345 13.925 102.528 13.925ZM107.103 21.075C107.103 20.225 106.936 19.5 106.603 18.9C106.27 18.2833 105.82 17.8167 105.253 17.5C104.686 17.1667 104.078 17 103.428 17C102.778 17 102.178 17.1583 101.628 17.475C101.078 17.7917 100.628 18.2583 100.278 18.875C99.9446 19.475 99.7779 20.1917 99.7779 21.025C99.7779 21.8583 99.9446 22.5917 100.278 23.225C100.628 23.8417 101.078 24.3167 101.628 24.65C102.195 24.9833 102.795 25.15 103.428 25.15C104.078 25.15 104.686 24.9917 105.253 24.675C105.82 24.3417 106.27 23.875 106.603 23.275C106.936 22.6583 107.103 21.925 107.103 21.075ZM121.846 13.95C122.896 13.95 123.83 14.1833 124.646 14.65C125.463 15.1 126.096 15.775 126.546 16.675C127.013 17.5583 127.246 18.625 127.246 19.875V28H123.746V20.35C123.746 19.25 123.471 18.4083 122.921 17.825C122.371 17.225 121.621 16.925 120.671 16.925C119.705 16.925 118.938 17.225 118.371 17.825C117.821 18.4083 117.546 19.25 117.546 20.35V28H114.046V9.5H117.546V15.875C117.996 15.275 118.596 14.8083 119.346 14.475C120.096 14.125 120.93 13.95 121.846 13.95ZM149.532 31.075L146.882 27.9C146.148 28.0833 145.398 28.175 144.632 28.175C142.998 28.175 141.498 27.7917 140.132 27.025C138.765 26.2583 137.682 25.2 136.882 23.85C136.082 22.4833 135.682 20.9417 135.682 19.225C135.682 17.525 136.082 16 136.882 14.65C137.682 13.2833 138.765 12.2167 140.132 11.45C141.498 10.6833 142.998 10.3 144.632 10.3C146.282 10.3 147.782 10.6833 149.132 11.45C150.498 12.2167 151.573 13.2833 152.357 14.65C153.157 16 153.557 17.525 153.557 19.225C153.557 20.775 153.223 22.1917 152.557 23.475C151.907 24.7417 151.015 25.775 149.882 26.575L153.882 31.075H149.532ZM139.282 19.225C139.282 20.3917 139.507 21.4167 139.957 22.3C140.407 23.1833 141.032 23.8667 141.832 24.35C142.648 24.8167 143.582 25.05 144.632 25.05C145.682 25.05 146.607 24.8167 147.407 24.35C148.207 23.8667 148.832 23.1833 149.282 22.3C149.732 21.4167 149.957 20.3917 149.957 19.225C149.957 18.0583 149.732 17.0417 149.282 16.175C148.832 15.2917 148.207 14.6167 147.407 14.15C146.607 13.6833 145.682 13.45 144.632 13.45C143.582 13.45 142.648 13.6833 141.832 14.15C141.032 14.6167 140.407 15.2917 139.957 16.175C139.507 17.0417 139.282 18.0583 139.282 19.225ZM169.284 14.15V28H165.759V26.25C165.309 26.85 164.718 27.325 163.984 27.675C163.268 28.0083 162.484 28.175 161.634 28.175C160.551 28.175 159.593 27.95 158.759 27.5C157.926 27.0333 157.268 26.3583 156.784 25.475C156.318 24.575 156.084 23.5083 156.084 22.275V14.15H159.584V21.775C159.584 22.875 159.859 23.725 160.409 24.325C160.959 24.9083 161.709 25.2 162.659 25.2C163.626 25.2 164.384 24.9083 164.934 24.325C165.484 23.725 165.759 22.875 165.759 21.775V14.15H169.284ZM171.838 21.025C171.838 19.625 172.113 18.3833 172.663 17.3C173.229 16.2167 173.988 15.3833 174.938 14.8C175.904 14.2167 176.979 13.925 178.163 13.925C179.196 13.925 180.096 14.1333 180.863 14.55C181.646 14.9667 182.271 15.4917 182.738 16.125V14.15H186.263V28H182.738V25.975C182.288 26.625 181.663 27.1667 180.863 27.6C180.079 28.0167 179.171 28.225 178.138 28.225C176.971 28.225 175.904 27.925 174.938 27.325C173.988 26.725 173.229 25.8833 172.663 24.8C172.113 23.7 171.838 22.4417 171.838 21.025ZM182.738 21.075C182.738 20.225 182.571 19.5 182.238 18.9C181.904 18.2833 181.454 17.8167 180.888 17.5C180.321 17.1667 179.713 17 179.063 17C178.413 17 177.813 17.1583 177.263 17.475C176.713 17.7917 176.263 18.2583 175.913 18.875C175.579 19.475 175.413 20.1917 175.413 21.025C175.413 21.8583 175.579 22.5917 175.913 23.225C176.263 23.8417 176.713 24.3167 177.263 24.65C177.829 24.9833 178.429 25.15 179.063 25.15C179.713 25.15 180.321 24.9917 180.888 24.675C181.454 24.3417 181.904 23.875 182.238 23.275C182.571 22.6583 182.738 21.925 182.738 21.075ZM193.181 9.5V28H189.681V9.5H193.181ZM198.414 12.5C197.797 12.5 197.281 12.3083 196.864 11.925C196.464 11.525 196.264 11.0333 196.264 10.45C196.264 9.86667 196.464 9.38333 196.864 9C197.281 8.6 197.797 8.4 198.414 8.4C199.031 8.4 199.539 8.6 199.939 9C200.356 9.38333 200.564 9.86667 200.564 10.45C200.564 11.0333 200.356 11.525 199.939 11.925C199.539 12.3083 199.031 12.5 198.414 12.5ZM200.139 14.15V28H196.639V14.15H200.139ZM207.672 17.025V23.725C207.672 24.1917 207.78 24.5333 207.997 24.75C208.23 24.95 208.614 25.05 209.147 25.05H210.772V28H208.572C205.622 28 204.147 26.5667 204.147 23.7V17.025H202.497V14.15H204.147V10.725H207.672V14.15H210.772V17.025H207.672ZM226.539 14.15L217.964 34.55H214.239L217.239 27.65L211.689 14.15H215.614L219.189 23.825L222.814 14.15H226.539Z" fill="#242424"/>
<path d="M71.24 56.48C71.24 55.3467 71.4667 54.3533 71.92 53.5C72.3867 52.6333 73.0267 51.9667 73.84 51.5C74.6533 51.0333 75.5867 50.8 76.64 50.8C77.9733 50.8 79.0733 51.12 79.94 51.76C80.82 52.3867 81.4133 53.2867 81.72 54.46H79.26C79.06 53.9133 78.74 53.4867 78.3 53.18C77.86 52.8733 77.3067 52.72 76.64 52.72C75.7067 52.72 74.96 53.0533 74.4 53.72C73.8533 54.3733 73.58 55.2933 73.58 56.48C73.58 57.6667 73.8533 58.5933 74.4 59.26C74.96 59.9267 75.7067 60.26 76.64 60.26C77.96 60.26 78.8333 59.68 79.26 58.52H81.72C81.4 59.64 80.8 60.5333 79.92 61.2C79.04 61.8533 77.9467 62.18 76.64 62.18C75.5867 62.18 74.6533 61.9467 73.84 61.48C73.0267 61 72.3867 60.3333 71.92 59.48C71.4667 58.6133 71.24 57.6133 71.24 56.48ZM86.2722 52.58C86.6055 52.02 87.0455 51.5867 87.5922 51.28C88.1522 50.96 88.8122 50.8 89.5722 50.8V53.16H88.9922C88.0989 53.16 87.4189 53.3867 86.9522 53.84C86.4989 54.2933 86.2722 55.08 86.2722 56.2V62H83.9922V50.98H86.2722V52.58ZM90.908 56.44C90.908 55.3333 91.1346 54.3533 91.588 53.5C92.0546 52.6467 92.6813 51.9867 93.468 51.52C94.268 51.04 95.148 50.8 96.108 50.8C96.9746 50.8 97.728 50.9733 98.368 51.32C99.0213 51.6533 99.5413 52.0733 99.928 52.58V50.98H102.228V62H99.928V60.36C99.5413 60.88 99.0146 61.3133 98.348 61.66C97.6813 62.0067 96.9213 62.18 96.068 62.18C95.1213 62.18 94.2546 61.94 93.468 61.46C92.6813 60.9667 92.0546 60.2867 91.588 59.42C91.1346 58.54 90.908 57.5467 90.908 56.44ZM99.928 56.48C99.928 55.72 99.768 55.06 99.448 54.5C99.1413 53.94 98.7346 53.5133 98.228 53.22C97.7213 52.9267 97.1746 52.78 96.588 52.78C96.0013 52.78 95.4546 52.9267 94.948 53.22C94.4413 53.5 94.028 53.92 93.708 54.48C93.4013 55.0267 93.248 55.68 93.248 56.44C93.248 57.2 93.4013 57.8667 93.708 58.44C94.028 59.0133 94.4413 59.4533 94.948 59.76C95.468 60.0533 96.0146 60.2 96.588 60.2C97.1746 60.2 97.7213 60.0533 98.228 59.76C98.7346 59.4667 99.1413 59.04 99.448 58.48C99.768 57.9067 99.928 57.24 99.928 56.48ZM109.843 52.84H107.803V62H105.503V52.84H104.203V50.98H105.503V50.2C105.503 48.9333 105.836 48.0133 106.503 47.44C107.183 46.8533 108.243 46.56 109.683 46.56V48.46C108.989 48.46 108.503 48.5933 108.223 48.86C107.943 49.1133 107.803 49.56 107.803 50.2V50.98H109.843V52.84ZM114.523 52.84V58.94C114.523 59.3533 114.617 59.6533 114.803 59.84C115.003 60.0133 115.337 60.1 115.803 60.1H117.203V62H115.403C114.377 62 113.59 61.76 113.043 61.28C112.497 60.8 112.223 60.02 112.223 58.94V52.84H110.923V50.98H112.223V48.24H114.523V50.98H117.203V52.84H114.523ZM129.405 56.22C129.405 56.6333 129.378 57.0067 129.325 57.34H120.905C120.971 58.22 121.298 58.9267 121.885 59.46C122.471 59.9933 123.191 60.26 124.045 60.26C125.271 60.26 126.138 59.7467 126.645 58.72H129.105C128.771 59.7333 128.165 60.5667 127.285 61.22C126.418 61.86 125.338 62.18 124.045 62.18C122.991 62.18 122.045 61.9467 121.205 61.48C120.378 61 119.725 60.3333 119.245 59.48C118.778 58.6133 118.545 57.6133 118.545 56.48C118.545 55.3467 118.771 54.3533 119.225 53.5C119.691 52.6333 120.338 51.9667 121.165 51.5C122.005 51.0333 122.965 50.8 124.045 50.8C125.085 50.8 126.011 51.0267 126.825 51.48C127.638 51.9333 128.271 52.5733 128.725 53.4C129.178 54.2133 129.405 55.1533 129.405 56.22ZM127.025 55.5C127.011 54.66 126.711 53.9867 126.125 53.48C125.538 52.9733 124.811 52.72 123.945 52.72C123.158 52.72 122.485 52.9733 121.925 53.48C121.365 53.9733 121.031 54.6467 120.925 55.5H127.025ZM130.888 56.44C130.888 55.3333 131.115 54.3533 131.568 53.5C132.035 52.6467 132.662 51.9867 133.448 51.52C134.248 51.04 135.135 50.8 136.108 50.8C136.828 50.8 137.535 50.96 138.228 51.28C138.935 51.5867 139.495 52 139.908 52.52V47.2H142.208V62H139.908V60.34C139.535 60.8733 139.015 61.3133 138.348 61.66C137.695 62.0067 136.942 62.18 136.088 62.18C135.128 62.18 134.248 61.94 133.448 61.46C132.662 60.9667 132.035 60.2867 131.568 59.42C131.115 58.54 130.888 57.5467 130.888 56.44ZM139.908 56.48C139.908 55.72 139.748 55.06 139.428 54.5C139.122 53.94 138.715 53.5133 138.208 53.22C137.702 52.9267 137.155 52.78 136.568 52.78C135.982 52.78 135.435 52.9267 134.928 53.22C134.422 53.5 134.008 53.92 133.688 54.48C133.382 55.0267 133.228 55.68 133.228 56.44C133.228 57.2 133.382 57.8667 133.688 58.44C134.008 59.0133 134.422 59.4533 134.928 59.76C135.448 60.0533 135.995 60.2 136.568 60.2C137.155 60.2 137.702 60.0533 138.208 59.76C138.715 59.4667 139.122 59.04 139.428 58.48C139.748 57.9067 139.908 57.24 139.908 56.48ZM155.018 52.84H152.978V62H150.678V52.84H149.378V50.98H150.678V50.2C150.678 48.9333 151.012 48.0133 151.678 47.44C152.358 46.8533 153.418 46.56 154.858 46.56V48.46C154.165 48.46 153.678 48.5933 153.398 48.86C153.118 49.1133 152.978 49.56 152.978 50.2V50.98H155.018V52.84ZM159.319 52.58C159.652 52.02 160.092 51.5867 160.639 51.28C161.199 50.96 161.859 50.8 162.619 50.8V53.16H162.039C161.146 53.16 160.466 53.3867 159.999 53.84C159.546 54.2933 159.319 55.08 159.319 56.2V62H157.039V50.98H159.319V52.58ZM169.495 62.18C168.455 62.18 167.515 61.9467 166.675 61.48C165.835 61 165.175 60.3333 164.695 59.48C164.215 58.6133 163.975 57.6133 163.975 56.48C163.975 55.36 164.222 54.3667 164.715 53.5C165.208 52.6333 165.882 51.9667 166.735 51.5C167.588 51.0333 168.542 50.8 169.595 50.8C170.648 50.8 171.602 51.0333 172.455 51.5C173.308 51.9667 173.982 52.6333 174.475 53.5C174.968 54.3667 175.215 55.36 175.215 56.48C175.215 57.6 174.962 58.5933 174.455 59.46C173.948 60.3267 173.255 61 172.375 61.48C171.508 61.9467 170.548 62.18 169.495 62.18ZM169.495 60.2C170.082 60.2 170.628 60.06 171.135 59.78C171.655 59.5 172.075 59.08 172.395 58.52C172.715 57.96 172.875 57.28 172.875 56.48C172.875 55.68 172.722 55.0067 172.415 54.46C172.108 53.9 171.702 53.48 171.195 53.2C170.688 52.92 170.142 52.78 169.555 52.78C168.968 52.78 168.422 52.92 167.915 53.2C167.422 53.48 167.028 53.9 166.735 54.46C166.442 55.0067 166.295 55.68 166.295 56.48C166.295 57.6667 166.595 58.5867 167.195 59.24C167.808 59.88 168.575 60.2 169.495 60.2ZM190.809 50.8C191.675 50.8 192.449 50.98 193.129 51.34C193.822 51.7 194.362 52.2333 194.749 52.94C195.149 53.6467 195.349 54.5 195.349 55.5V62H193.089V55.84C193.089 54.8533 192.842 54.1 192.349 53.58C191.855 53.0467 191.182 52.78 190.329 52.78C189.475 52.78 188.795 53.0467 188.289 53.58C187.795 54.1 187.549 54.8533 187.549 55.84V62H185.289V55.84C185.289 54.8533 185.042 54.1 184.549 53.58C184.055 53.0467 183.382 52.78 182.529 52.78C181.675 52.78 180.995 53.0467 180.489 53.58C179.995 54.1 179.749 54.8533 179.749 55.84V62H177.469V50.98H179.749V52.24C180.122 51.7867 180.595 51.4333 181.169 51.18C181.742 50.9267 182.355 50.8 183.009 50.8C183.889 50.8 184.675 50.9867 185.369 51.36C186.062 51.7333 186.595 52.2733 186.969 52.98C187.302 52.3133 187.822 51.7867 188.529 51.4C189.235 51 189.995 50.8 190.809 50.8ZM206.105 52.84V58.94C206.105 59.3533 206.199 59.6533 206.385 59.84C206.585 60.0133 206.919 60.1 207.385 60.1H208.785V62H206.985C205.959 62 205.172 61.76 204.625 61.28C204.079 60.8 203.805 60.02 203.805 58.94V52.84H202.505V50.98H203.805V48.24H206.105V50.98H208.785V52.84H206.105ZM215.667 62.18C214.627 62.18 213.687 61.9467 212.847 61.48C212.007 61 211.347 60.3333 210.867 59.48C210.387 58.6133 210.147 57.6133 210.147 56.48C210.147 55.36 210.393 54.3667 210.887 53.5C211.38 52.6333 212.053 51.9667 212.907 51.5C213.76 51.0333 214.713 50.8 215.767 50.8C216.82 50.8 217.773 51.0333 218.627 51.5C219.48 51.9667 220.153 52.6333 220.647 53.5C221.14 54.3667 221.387 55.36 221.387 56.48C221.387 57.6 221.133 58.5933 220.627 59.46C220.12 60.3267 219.427 61 218.547 61.48C217.68 61.9467 216.72 62.18 215.667 62.18ZM215.667 60.2C216.253 60.2 216.8 60.06 217.307 59.78C217.827 59.5 218.247 59.08 218.567 58.52C218.887 57.96 219.047 57.28 219.047 56.48C219.047 55.68 218.893 55.0067 218.587 54.46C218.28 53.9 217.873 53.48 217.367 53.2C216.86 52.92 216.313 52.78 215.727 52.78C215.14 52.78 214.593 52.92 214.087 53.2C213.593 53.48 213.2 53.9 212.907 54.46C212.613 55.0067 212.467 55.68 212.467 56.48C212.467 57.6667 212.767 58.5867 213.367 59.24C213.98 59.88 214.747 60.2 215.667 60.2ZM225.921 52.6C226.307 52.0933 226.834 51.6667 227.501 51.32C228.167 50.9733 228.921 50.8 229.761 50.8C230.721 50.8 231.594 51.04 232.381 51.52C233.181 51.9867 233.807 52.6467 234.261 53.5C234.714 54.3533 234.941 55.3333 234.941 56.44C234.941 57.5467 234.714 58.54 234.261 59.42C233.807 60.2867 233.181 60.9667 232.381 61.46C231.594 61.94 230.721 62.18 229.761 62.18C228.921 62.18 228.174 62.0133 227.521 61.68C226.867 61.3333 226.334 60.9067 225.921 60.4V67.24H223.641V50.98H225.921V52.6ZM232.621 56.44C232.621 55.68 232.461 55.0267 232.141 54.48C231.834 53.92 231.421 53.5 230.901 53.22C230.394 52.9267 229.847 52.78 229.261 52.78C228.687 52.78 228.141 52.9267 227.621 53.22C227.114 53.5133 226.701 53.94 226.381 54.5C226.074 55.06 225.921 55.72 225.921 56.48C225.921 57.24 226.074 57.9067 226.381 58.48C226.701 59.04 227.114 59.4667 227.621 59.76C228.141 60.0533 228.687 60.2 229.261 60.2C229.847 60.2 230.394 60.0533 230.901 59.76C231.421 59.4533 231.834 59.0133 232.141 58.44C232.461 57.8667 232.621 57.2 232.621 56.44ZM255.731 50.8C256.597 50.8 257.371 50.98 258.051 51.34C258.744 51.7 259.284 52.2333 259.671 52.94C260.071 53.6467 260.271 54.5 260.271 55.5V62H258.011V55.84C258.011 54.8533 257.764 54.1 257.271 53.58C256.777 53.0467 256.104 52.78 255.251 52.78C254.397 52.78 253.717 53.0467 253.211 53.58C252.717 54.1 252.471 54.8533 252.471 55.84V62H250.211V55.84C250.211 54.8533 249.964 54.1 249.471 53.58C248.977 53.0467 248.304 52.78 247.451 52.78C246.597 52.78 245.917 53.0467 245.411 53.58C244.917 54.1 244.671 54.8533 244.671 55.84V62H242.391V50.98H244.671V52.24C245.044 51.7867 245.517 51.4333 246.091 51.18C246.664 50.9267 247.277 50.8 247.931 50.8C248.811 50.8 249.597 50.9867 250.291 51.36C250.984 51.7333 251.517 52.2733 251.891 52.98C252.224 52.3133 252.744 51.7867 253.451 51.4C254.157 51 254.917 50.8 255.731 50.8ZM262.412 56.44C262.412 55.3333 262.639 54.3533 263.092 53.5C263.559 52.6467 264.185 51.9867 264.972 51.52C265.772 51.04 266.652 50.8 267.612 50.8C268.479 50.8 269.232 50.9733 269.872 51.32C270.525 51.6533 271.045 52.0733 271.432 52.58V50.98H273.732V62H271.432V60.36C271.045 60.88 270.519 61.3133 269.852 61.66C269.185 62.0067 268.425 62.18 267.572 62.18C266.625 62.18 265.759 61.94 264.972 61.46C264.185 60.9667 263.559 60.2867 263.092 59.42C262.639 58.54 262.412 57.5467 262.412 56.44ZM271.432 56.48C271.432 55.72 271.272 55.06 270.952 54.5C270.645 53.94 270.239 53.5133 269.732 53.22C269.225 52.9267 268.679 52.78 268.092 52.78C267.505 52.78 266.959 52.9267 266.452 53.22C265.945 53.5 265.532 53.92 265.212 54.48C264.905 55.0267 264.752 55.68 264.752 56.44C264.752 57.2 264.905 57.8667 265.212 58.44C265.532 59.0133 265.945 59.4533 266.452 59.76C266.972 60.0533 267.519 60.2 268.092 60.2C268.679 60.2 269.225 60.0533 269.732 59.76C270.239 59.4667 270.645 59.04 270.952 58.48C271.272 57.9067 271.432 57.24 271.432 56.48ZM279.387 52.84V58.94C279.387 59.3533 279.48 59.6533 279.667 59.84C279.867 60.0133 280.2 60.1 280.667 60.1H282.067V62H280.267C279.24 62 278.453 61.76 277.907 61.28C277.36 60.8 277.087 60.02 277.087 58.94V52.84H275.787V50.98H277.087V48.24H279.387V50.98H282.067V52.84H279.387ZM294.268 56.22C294.268 56.6333 294.241 57.0067 294.188 57.34H285.768C285.835 58.22 286.161 58.9267 286.748 59.46C287.335 59.9933 288.055 60.26 288.908 60.26C290.135 60.26 291.001 59.7467 291.508 58.72H293.968C293.635 59.7333 293.028 60.5667 292.148 61.22C291.281 61.86 290.201 62.18 288.908 62.18C287.855 62.18 286.908 61.9467 286.068 61.48C285.241 61 284.588 60.3333 284.108 59.48C283.641 58.6133 283.408 57.6133 283.408 56.48C283.408 55.3467 283.635 54.3533 284.088 53.5C284.555 52.6333 285.201 51.9667 286.028 51.5C286.868 51.0333 287.828 50.8 288.908 50.8C289.948 50.8 290.875 51.0267 291.688 51.48C292.501 51.9333 293.135 52.5733 293.588 53.4C294.041 54.2133 294.268 55.1533 294.268 56.22ZM291.888 55.5C291.875 54.66 291.575 53.9867 290.988 53.48C290.401 52.9733 289.675 52.72 288.808 52.72C288.021 52.72 287.348 52.9733 286.788 53.48C286.228 53.9733 285.895 54.6467 285.788 55.5H291.888ZM298.792 52.58C299.125 52.02 299.565 51.5867 300.112 51.28C300.672 50.96 301.332 50.8 302.092 50.8V53.16H301.512C300.618 53.16 299.938 53.3867 299.472 53.84C299.018 54.2933 298.792 55.08 298.792 56.2V62H296.512V50.98H298.792V52.58ZM305.348 49.52C304.934 49.52 304.588 49.38 304.308 49.1C304.028 48.82 303.888 48.4733 303.888 48.06C303.888 47.6467 304.028 47.3 304.308 47.02C304.588 46.74 304.934 46.6 305.348 46.6C305.748 46.6 306.088 46.74 306.368 47.02C306.648 47.3 306.788 47.6467 306.788 48.06C306.788 48.4733 306.648 48.82 306.368 49.1C306.088 49.38 305.748 49.52 305.348 49.52ZM306.468 50.98V62H304.188V50.98H306.468ZM308.701 56.44C308.701 55.3333 308.928 54.3533 309.381 53.5C309.848 52.6467 310.474 51.9867 311.261 51.52C312.061 51.04 312.941 50.8 313.901 50.8C314.768 50.8 315.521 50.9733 316.161 51.32C316.814 51.6533 317.334 52.0733 317.721 52.58V50.98H320.021V62H317.721V60.36C317.334 60.88 316.808 61.3133 316.141 61.66C315.474 62.0067 314.714 62.18 313.861 62.18C312.914 62.18 312.048 61.94 311.261 61.46C310.474 60.9667 309.848 60.2867 309.381 59.42C308.928 58.54 308.701 57.5467 308.701 56.44ZM317.721 56.48C317.721 55.72 317.561 55.06 317.241 54.5C316.934 53.94 316.528 53.5133 316.021 53.22C315.514 52.9267 314.968 52.78 314.381 52.78C313.794 52.78 313.248 52.9267 312.741 53.22C312.234 53.5 311.821 53.92 311.501 54.48C311.194 55.0267 311.041 55.68 311.041 56.44C311.041 57.2 311.194 57.8667 311.501 58.44C311.821 59.0133 312.234 59.4533 312.741 59.76C313.261 60.0533 313.808 60.2 314.381 60.2C314.968 60.2 315.514 60.0533 316.021 59.76C316.528 59.4667 316.934 59.04 317.241 58.48C317.561 57.9067 317.721 57.24 317.721 56.48ZM325.296 47.2V62H323.016V47.2H325.296ZM332.289 62.18C331.422 62.18 330.642 62.0267 329.949 61.72C329.269 61.4 328.729 60.9733 328.329 60.44C327.929 59.8933 327.716 59.2867 327.689 58.62H330.049C330.089 59.0867 330.309 59.48 330.709 59.8C331.122 60.1067 331.636 60.26 332.249 60.26C332.889 60.26 333.382 60.14 333.729 59.9C334.089 59.6467 334.269 59.3267 334.269 58.94C334.269 58.5267 334.069 58.22 333.669 58.02C333.282 57.82 332.662 57.6 331.809 57.36C330.982 57.1333 330.309 56.9133 329.789 56.7C329.269 56.4867 328.816 56.16 328.429 55.72C328.056 55.28 327.869 54.7 327.869 53.98C327.869 53.3933 328.042 52.86 328.389 52.38C328.736 51.8867 329.229 51.5 329.869 51.22C330.522 50.94 331.269 50.8 332.109 50.8C333.362 50.8 334.369 51.12 335.129 51.76C335.902 52.3867 336.316 53.2467 336.369 54.34H334.089C334.049 53.8467 333.849 53.4533 333.489 53.16C333.129 52.8667 332.642 52.72 332.029 52.72C331.429 52.72 330.969 52.8333 330.649 53.06C330.329 53.2867 330.169 53.5867 330.169 53.96C330.169 54.2533 330.276 54.5 330.489 54.7C330.702 54.9 330.962 55.06 331.269 55.18C331.576 55.2867 332.029 55.4267 332.629 55.6C333.429 55.8133 334.082 56.0333 334.589 56.26C335.109 56.4733 335.556 56.7933 335.929 57.22C336.302 57.6467 336.496 58.2133 336.509 58.92C336.509 59.5467 336.336 60.1067 335.989 60.6C335.642 61.0933 335.149 61.48 334.509 61.76C333.882 62.04 333.142 62.18 332.289 62.18Z" fill="#898989"/>
</svg>
