<svg width="329" height="70" viewBox="0 0 329 70" fill="none" xmlns="http://www.w3.org/2000/svg">
<g clip-path="url(#clip0_3136_1547)">
<path d="M57.6194 26.2613C56.8277 23.8097 57.1652 20.1296 55.1074 17.2882C53.0334 14.4244 49.4262 13.6104 47.3894 12.1207C45.374 10.6467 43.499 7.43918 40.1089 6.33293C36.8144 5.25785 33.4455 6.71672 30.8334 6.71672C28.2216 6.71672 24.8529 5.2575 21.5579 6.33281C18.1683 7.43883 16.2918 10.6471 14.2777 12.1204C12.2431 13.6083 8.63326 14.4245 6.55962 17.2879C4.50357 20.127 4.83767 23.8154 4.04736 26.2611C3.29525 28.5888 0.833374 31.3825 0.833374 35.0003C0.833374 38.6203 3.29244 41.4032 4.04736 43.7393C4.83908 46.1909 4.50158 49.8709 6.55939 52.7123C8.63326 55.5763 12.2403 56.3902 14.2774 57.88C16.2924 59.3537 18.1677 62.5615 21.5579 63.6676C24.8501 64.742 28.2243 63.2838 30.8334 63.2838C33.4388 63.2838 36.8208 64.7405 40.1089 63.6677C43.4985 62.5617 45.3739 59.3542 47.389 57.8802C49.4236 56.3923 53.0335 55.5761 55.1071 52.7127C57.1633 49.8735 56.829 46.1854 57.6194 43.7394C58.3715 41.4116 60.8334 38.618 60.8334 35.0003C60.8334 31.3805 58.3749 28.5984 57.6194 26.2613V26.2613ZM53.1591 42.298C52.2363 45.1545 52.478 48.3512 51.3108 49.963C50.1279 51.5962 47.0202 52.3423 44.6222 54.0963C42.2505 55.8308 40.5882 58.5804 38.6548 59.2112C36.8258 59.8082 33.845 58.5961 30.8335 58.5961C27.8 58.5961 24.8499 59.8107 23.012 59.2112C21.0789 58.5804 19.419 55.8327 17.0446 54.0962C14.6608 52.3528 11.5354 51.5914 10.3559 49.9628C9.19248 48.3564 9.42509 45.1375 8.50787 42.2981C7.6088 39.5162 5.52087 37.1074 5.52087 35.0003C5.52087 32.891 7.60693 30.4905 8.50763 27.7025C9.43048 24.8462 9.18873 21.6492 10.3559 20.0375C11.5381 18.4054 14.6481 17.6569 17.0446 15.9042C19.4239 14.1641 21.0758 11.4211 23.0118 10.7893C24.8394 10.1931 27.8299 11.4045 30.8333 11.4045C33.8723 11.4045 36.815 10.189 38.6547 10.7893C40.5876 11.42 42.249 14.1688 44.6222 15.9043C47.0057 17.6477 50.1313 18.4091 51.3108 20.0377C52.4745 21.6444 52.2406 24.86 53.1589 27.7023V27.7024C54.0579 30.4843 56.1459 32.8931 56.1459 35.0003C56.1459 37.1095 54.0598 39.51 53.1591 42.298V42.298ZM41.6314 27.4774C42.5467 28.3928 42.5467 29.8767 41.6314 30.792L29.9002 42.5231C28.9849 43.4385 27.5008 43.4384 26.5856 42.5231L20.0355 35.973C19.1201 35.0577 19.12 33.5737 20.0354 32.6585C20.9507 31.7433 22.4349 31.7432 23.3499 32.6585L28.2428 37.5513L38.3166 27.4775C39.232 26.5622 40.716 26.5622 41.6314 27.4774V27.4774Z" fill="#242424"/>
</g>
<path d="M95.8834 10.55L91.0084 28H86.8834L83.6084 15.575L80.1834 28L76.0834 28.025L71.3834 10.55H75.1334L78.2084 24.1L81.7584 10.55H85.6584L89.0084 24.025L92.1084 10.55H95.8834ZM97.2687 21.025C97.2687 19.625 97.5437 18.3833 98.0937 17.3C98.6604 16.2167 99.4187 15.3833 100.369 14.8C101.335 14.2167 102.41 13.925 103.594 13.925C104.627 13.925 105.527 14.1333 106.294 14.55C107.077 14.9667 107.702 15.4917 108.169 16.125V14.15H111.694V28H108.169V25.975C107.719 26.625 107.094 27.1667 106.294 27.6C105.51 28.0167 104.602 28.225 103.569 28.225C102.402 28.225 101.335 27.925 100.369 27.325C99.4187 26.725 98.6604 25.8833 98.0937 24.8C97.5437 23.7 97.2687 22.4417 97.2687 21.025ZM108.169 21.075C108.169 20.225 108.002 19.5 107.669 18.9C107.335 18.2833 106.885 17.8167 106.319 17.5C105.752 17.1667 105.144 17 104.494 17C103.844 17 103.244 17.1583 102.694 17.475C102.144 17.7917 101.694 18.2583 101.344 18.875C101.01 19.475 100.844 20.1917 100.844 21.025C100.844 21.8583 101.01 22.5917 101.344 23.225C101.694 23.8417 102.144 24.3167 102.694 24.65C103.26 24.9833 103.86 25.15 104.494 25.15C105.144 25.15 105.752 24.9917 106.319 24.675C106.885 24.3417 107.335 23.875 107.669 23.275C108.002 22.6583 108.169 21.925 108.169 21.075ZM118.612 16.3C119.062 15.5667 119.645 14.9917 120.362 14.575C121.095 14.1583 121.929 13.95 122.862 13.95V17.625H121.937C120.837 17.625 120.004 17.8833 119.437 18.4C118.887 18.9167 118.612 19.8167 118.612 21.1V28H115.112V14.15H118.612V16.3ZM128.72 16.3C129.17 15.5667 129.753 14.9917 130.47 14.575C131.203 14.1583 132.036 13.95 132.97 13.95V17.625H132.045C130.945 17.625 130.111 17.8833 129.545 18.4C128.995 18.9167 128.72 19.8167 128.72 21.1V28H125.22V14.15H128.72V16.3ZM134.427 21.025C134.427 19.625 134.702 18.3833 135.252 17.3C135.819 16.2167 136.577 15.3833 137.527 14.8C138.494 14.2167 139.569 13.925 140.752 13.925C141.785 13.925 142.685 14.1333 143.452 14.55C144.235 14.9667 144.86 15.4917 145.327 16.125V14.15H148.852V28H145.327V25.975C144.877 26.625 144.252 27.1667 143.452 27.6C142.669 28.0167 141.76 28.225 140.727 28.225C139.56 28.225 138.494 27.925 137.527 27.325C136.577 26.725 135.819 25.8833 135.252 24.8C134.702 23.7 134.427 22.4417 134.427 21.025ZM145.327 21.075C145.327 20.225 145.16 19.5 144.827 18.9C144.494 18.2833 144.044 17.8167 143.477 17.5C142.91 17.1667 142.302 17 141.652 17C141.002 17 140.402 17.1583 139.852 17.475C139.302 17.7917 138.852 18.2583 138.502 18.875C138.169 19.475 138.002 20.1917 138.002 21.025C138.002 21.8583 138.169 22.5917 138.502 23.225C138.852 23.8417 139.302 24.3167 139.852 24.65C140.419 24.9833 141.019 25.15 141.652 25.15C142.302 25.15 142.91 24.9917 143.477 24.675C144.044 24.3417 144.494 23.875 144.827 23.275C145.16 22.6583 145.327 21.925 145.327 21.075ZM159.945 13.95C161.595 13.95 162.929 14.475 163.945 15.525C164.962 16.5583 165.47 18.0083 165.47 19.875V28H161.97V20.35C161.97 19.25 161.695 18.4083 161.145 17.825C160.595 17.225 159.845 16.925 158.895 16.925C157.929 16.925 157.162 17.225 156.595 17.825C156.045 18.4083 155.77 19.25 155.77 20.35V28H152.27V14.15H155.77V15.875C156.237 15.275 156.829 14.8083 157.545 14.475C158.279 14.125 159.079 13.95 159.945 13.95ZM172.874 17.025V23.725C172.874 24.1917 172.982 24.5333 173.199 24.75C173.432 24.95 173.815 25.05 174.349 25.05H175.974V28H173.774C170.824 28 169.349 26.5667 169.349 23.7V17.025H167.699V14.15H169.349V10.725H172.874V14.15H175.974V17.025H172.874ZM191.741 14.15L183.166 34.55H179.441L182.441 27.65L176.891 14.15H180.816L184.391 23.825L188.016 14.15H191.741ZM212.31 15.95C212.31 16.8833 212.085 17.7583 211.635 18.575C211.201 19.3917 210.51 20.05 209.56 20.55C208.626 21.05 207.443 21.3 206.01 21.3H203.085V28H199.585V10.55H206.01C207.36 10.55 208.51 10.7833 209.46 11.25C210.41 11.7167 211.118 12.3583 211.585 13.175C212.068 13.9917 212.31 14.9167 212.31 15.95ZM205.86 18.475C206.826 18.475 207.543 18.2583 208.01 17.825C208.476 17.375 208.71 16.75 208.71 15.95C208.71 14.25 207.76 13.4 205.86 13.4H203.085V18.475H205.86ZM218.295 16.3C218.745 15.5667 219.328 14.9917 220.045 14.575C220.778 14.1583 221.611 13.95 222.545 13.95V17.625H221.62C220.52 17.625 219.686 17.8833 219.12 18.4C218.57 18.9167 218.295 19.8167 218.295 21.1V28H214.795V14.15H218.295V16.3ZM231.052 28.225C229.719 28.225 228.519 27.9333 227.452 27.35C226.385 26.75 225.544 25.9083 224.927 24.825C224.327 23.7417 224.027 22.4917 224.027 21.075C224.027 19.6583 224.335 18.4083 224.952 17.325C225.585 16.2417 226.444 15.4083 227.527 14.825C228.61 14.225 229.819 13.925 231.152 13.925C232.485 13.925 233.694 14.225 234.777 14.825C235.86 15.4083 236.71 16.2417 237.327 17.325C237.96 18.4083 238.277 19.6583 238.277 21.075C238.277 22.4917 237.952 23.7417 237.302 24.825C236.669 25.9083 235.802 26.75 234.702 27.35C233.619 27.9333 232.402 28.225 231.052 28.225ZM231.052 25.175C231.685 25.175 232.277 25.025 232.827 24.725C233.394 24.4083 233.844 23.9417 234.177 23.325C234.51 22.7083 234.677 21.9583 234.677 21.075C234.677 19.7583 234.327 18.75 233.627 18.05C232.944 17.3333 232.102 16.975 231.102 16.975C230.102 16.975 229.26 17.3333 228.577 18.05C227.91 18.75 227.577 19.7583 227.577 21.075C227.577 22.3917 227.902 23.4083 228.552 24.125C229.219 24.825 230.052 25.175 231.052 25.175ZM244.92 17.025V23.725C244.92 24.1917 245.028 24.5333 245.245 24.75C245.478 24.95 245.861 25.05 246.395 25.05H248.02V28H245.82C242.87 28 241.395 26.5667 241.395 23.7V17.025H239.745V14.15H241.395V10.725H244.92V14.15H248.02V17.025H244.92ZM263.412 20.775C263.412 21.275 263.379 21.725 263.312 22.125H253.187C253.27 23.125 253.62 23.9083 254.237 24.475C254.854 25.0417 255.612 25.325 256.512 25.325C257.812 25.325 258.737 24.7667 259.287 23.65H263.062C262.662 24.9833 261.895 26.0833 260.762 26.95C259.629 27.8 258.237 28.225 256.587 28.225C255.254 28.225 254.054 27.9333 252.987 27.35C251.937 26.75 251.112 25.9083 250.512 24.825C249.929 23.7417 249.637 22.4917 249.637 21.075C249.637 19.6417 249.929 18.3833 250.512 17.3C251.095 16.2167 251.912 15.3833 252.962 14.8C254.012 14.2167 255.22 13.925 256.587 13.925C257.904 13.925 259.079 14.2083 260.112 14.775C261.162 15.3417 261.97 16.15 262.537 17.2C263.12 18.2333 263.412 19.425 263.412 20.775ZM259.787 19.775C259.77 18.875 259.445 18.1583 258.812 17.625C258.179 17.075 257.404 16.8 256.487 16.8C255.62 16.8 254.887 17.0667 254.287 17.6C253.704 18.1167 253.345 18.8417 253.212 19.775H259.787ZM265.067 21.075C265.067 19.6417 265.358 18.3917 265.942 17.325C266.525 16.2417 267.333 15.4083 268.367 14.825C269.4 14.225 270.583 13.925 271.917 13.925C273.633 13.925 275.05 14.3583 276.167 15.225C277.3 16.075 278.058 17.275 278.442 18.825H274.667C274.467 18.225 274.125 17.7583 273.642 17.425C273.175 17.075 272.592 16.9 271.892 16.9C270.892 16.9 270.1 17.2667 269.517 18C268.933 18.7167 268.642 19.7417 268.642 21.075C268.642 22.3917 268.933 23.4167 269.517 24.15C270.1 24.8667 270.892 25.225 271.892 25.225C273.308 25.225 274.233 24.5917 274.667 23.325H278.442C278.058 24.825 277.3 26.0167 276.167 26.9C275.033 27.7833 273.617 28.225 271.917 28.225C270.583 28.225 269.4 27.9333 268.367 27.35C267.333 26.75 266.525 25.9167 265.942 24.85C265.358 23.7667 265.067 22.5083 265.067 21.075ZM285.081 17.025V23.725C285.081 24.1917 285.189 24.5333 285.406 24.75C285.639 24.95 286.022 25.05 286.556 25.05H288.181V28H285.981C283.031 28 281.556 26.5667 281.556 23.7V17.025H279.906V14.15H281.556V10.725H285.081V14.15H288.181V17.025H285.081ZM292.473 12.5C291.856 12.5 291.34 12.3083 290.923 11.925C290.523 11.525 290.323 11.0333 290.323 10.45C290.323 9.86667 290.523 9.38333 290.923 9C291.34 8.6 291.856 8.4 292.473 8.4C293.09 8.4 293.598 8.6 293.998 9C294.415 9.38333 294.623 9.86667 294.623 10.45C294.623 11.0333 294.415 11.525 293.998 11.925C293.598 12.3083 293.09 12.5 292.473 12.5ZM294.198 14.15V28H290.698V14.15H294.198ZM303.806 28.225C302.473 28.225 301.273 27.9333 300.206 27.35C299.139 26.75 298.298 25.9083 297.681 24.825C297.081 23.7417 296.781 22.4917 296.781 21.075C296.781 19.6583 297.089 18.4083 297.706 17.325C298.339 16.2417 299.198 15.4083 300.281 14.825C301.364 14.225 302.573 13.925 303.906 13.925C305.239 13.925 306.448 14.225 307.531 14.825C308.614 15.4083 309.464 16.2417 310.081 17.325C310.714 18.4083 311.031 19.6583 311.031 21.075C311.031 22.4917 310.706 23.7417 310.056 24.825C309.423 25.9083 308.556 26.75 307.456 27.35C306.373 27.9333 305.156 28.225 303.806 28.225ZM303.806 25.175C304.439 25.175 305.031 25.025 305.581 24.725C306.148 24.4083 306.598 23.9417 306.931 23.325C307.264 22.7083 307.431 21.9583 307.431 21.075C307.431 19.7583 307.081 18.75 306.381 18.05C305.698 17.3333 304.856 16.975 303.856 16.975C302.856 16.975 302.014 17.3333 301.331 18.05C300.664 18.75 300.331 19.7583 300.331 21.075C300.331 22.3917 300.656 23.4083 301.306 24.125C301.973 24.825 302.806 25.175 303.806 25.175ZM321.273 13.95C322.923 13.95 324.257 14.475 325.273 15.525C326.29 16.5583 326.798 18.0083 326.798 19.875V28H323.298V20.35C323.298 19.25 323.023 18.4083 322.473 17.825C321.923 17.225 321.173 16.925 320.223 16.925C319.257 16.925 318.49 17.225 317.923 17.825C317.373 18.4083 317.098 19.25 317.098 20.35V28H313.598V14.15H317.098V15.875C317.565 15.275 318.157 14.8083 318.873 14.475C319.607 14.125 320.407 13.95 321.273 13.95Z" fill="#242424"/>
<path d="M78.6734 62.14C77.38 62.14 76.1867 61.84 75.0934 61.24C74.0134 60.6267 73.1534 59.78 72.5134 58.7C71.8867 57.6067 71.5734 56.38 71.5734 55.02C71.5734 53.66 71.8867 52.44 72.5134 51.36C73.1534 50.28 74.0134 49.44 75.0934 48.84C76.1867 48.2267 77.38 47.92 78.6734 47.92C79.98 47.92 81.1734 48.2267 82.2534 48.84C83.3467 49.44 84.2067 50.28 84.8334 51.36C85.46 52.44 85.7734 53.66 85.7734 55.02C85.7734 56.38 85.46 57.6067 84.8334 58.7C84.2067 59.78 83.3467 60.6267 82.2534 61.24C81.1734 61.84 79.98 62.14 78.6734 62.14ZM78.6734 60.16C79.5934 60.16 80.4134 59.9533 81.1334 59.54C81.8534 59.1133 82.4134 58.5133 82.8134 57.74C83.2267 56.9533 83.4334 56.0467 83.4334 55.02C83.4334 53.9933 83.2267 53.0933 82.8134 52.32C82.4134 51.5467 81.8534 50.9533 81.1334 50.54C80.4134 50.1267 79.5934 49.92 78.6734 49.92C77.7534 49.92 76.9334 50.1267 76.2134 50.54C75.4934 50.9533 74.9267 51.5467 74.5134 52.32C74.1134 53.0933 73.9134 53.9933 73.9134 55.02C73.9134 56.0467 74.1134 56.9533 74.5134 57.74C74.9267 58.5133 75.4934 59.1133 76.2134 59.54C76.9334 59.9533 77.7534 60.16 78.6734 60.16ZM92.277 59.96L95.397 50.98H97.817L93.617 62H90.897L86.717 50.98H89.157L92.277 59.96ZM109.64 56.22C109.64 56.6333 109.614 57.0067 109.56 57.34H101.14C101.207 58.22 101.534 58.9267 102.12 59.46C102.707 59.9933 103.427 60.26 104.28 60.26C105.507 60.26 106.374 59.7467 106.88 58.72H109.34C109.007 59.7333 108.4 60.5667 107.52 61.22C106.654 61.86 105.574 62.18 104.28 62.18C103.227 62.18 102.28 61.9467 101.44 61.48C100.614 61 99.9604 60.3333 99.4804 59.48C99.0137 58.6133 98.7804 57.6133 98.7804 56.48C98.7804 55.3467 99.0071 54.3533 99.4604 53.5C99.9271 52.6333 100.574 51.9667 101.4 51.5C102.24 51.0333 103.2 50.8 104.28 50.8C105.32 50.8 106.247 51.0267 107.06 51.48C107.874 51.9333 108.507 52.5733 108.96 53.4C109.414 54.2133 109.64 55.1533 109.64 56.22ZM107.26 55.5C107.247 54.66 106.947 53.9867 106.36 53.48C105.774 52.9733 105.047 52.72 104.18 52.72C103.394 52.72 102.72 52.9733 102.16 53.48C101.6 53.9733 101.267 54.6467 101.16 55.5H107.26ZM114.164 52.58C114.497 52.02 114.937 51.5867 115.484 51.28C116.044 50.96 116.704 50.8 117.464 50.8V53.16H116.884C115.991 53.16 115.311 53.3867 114.844 53.84C114.391 54.2933 114.164 55.08 114.164 56.2V62H111.884V50.98H114.164V52.58ZM125.715 58.9C126.995 57.7933 128.002 56.8867 128.735 56.18C129.482 55.46 130.102 54.7133 130.595 53.94C131.089 53.1667 131.335 52.3933 131.335 51.62C131.335 50.82 131.142 50.1933 130.755 49.74C130.382 49.2867 129.789 49.06 128.975 49.06C128.189 49.06 127.575 49.3133 127.135 49.82C126.709 50.3133 126.482 50.98 126.455 51.82H124.255C124.295 50.3 124.749 49.14 125.615 48.34C126.495 47.5267 127.609 47.12 128.955 47.12C130.409 47.12 131.542 47.52 132.355 48.32C133.182 49.12 133.595 50.1867 133.595 51.52C133.595 52.48 133.349 53.4067 132.855 54.3C132.375 55.18 131.795 55.9733 131.115 56.68C130.449 57.3733 129.595 58.18 128.555 59.1L127.655 59.9H133.995V61.8H124.275V60.14L125.715 58.9ZM151.414 50.98L144.654 67.18H142.294L144.534 61.82L140.194 50.98H142.734L145.834 59.38L149.054 50.98H151.414ZM163.234 56.22C163.234 56.6333 163.207 57.0067 163.154 57.34H154.734C154.801 58.22 155.127 58.9267 155.714 59.46C156.301 59.9933 157.021 60.26 157.874 60.26C159.101 60.26 159.967 59.7467 160.474 58.72H162.934C162.601 59.7333 161.994 60.5667 161.114 61.22C160.247 61.86 159.167 62.18 157.874 62.18C156.821 62.18 155.874 61.9467 155.034 61.48C154.207 61 153.554 60.3333 153.074 59.48C152.607 58.6133 152.374 57.6133 152.374 56.48C152.374 55.3467 152.601 54.3533 153.054 53.5C153.521 52.6333 154.167 51.9667 154.994 51.5C155.834 51.0333 156.794 50.8 157.874 50.8C158.914 50.8 159.841 51.0267 160.654 51.48C161.467 51.9333 162.101 52.5733 162.554 53.4C163.007 54.2133 163.234 55.1533 163.234 56.22ZM160.854 55.5C160.841 54.66 160.541 53.9867 159.954 53.48C159.367 52.9733 158.641 52.72 157.774 52.72C156.987 52.72 156.314 52.9733 155.754 53.48C155.194 53.9733 154.861 54.6467 154.754 55.5H160.854ZM164.718 56.44C164.718 55.3333 164.945 54.3533 165.398 53.5C165.865 52.6467 166.491 51.9867 167.278 51.52C168.078 51.04 168.958 50.8 169.918 50.8C170.785 50.8 171.538 50.9733 172.178 51.32C172.831 51.6533 173.351 52.0733 173.738 52.58V50.98H176.038V62H173.738V60.36C173.351 60.88 172.825 61.3133 172.158 61.66C171.491 62.0067 170.731 62.18 169.878 62.18C168.931 62.18 168.065 61.94 167.278 61.46C166.491 60.9667 165.865 60.2867 165.398 59.42C164.945 58.54 164.718 57.5467 164.718 56.44ZM173.738 56.48C173.738 55.72 173.578 55.06 173.258 54.5C172.951 53.94 172.545 53.5133 172.038 53.22C171.531 52.9267 170.985 52.78 170.398 52.78C169.811 52.78 169.265 52.9267 168.758 53.22C168.251 53.5 167.838 53.92 167.518 54.48C167.211 55.0267 167.058 55.68 167.058 56.44C167.058 57.2 167.211 57.8667 167.518 58.44C167.838 59.0133 168.251 59.4533 168.758 59.76C169.278 60.0533 169.825 60.2 170.398 60.2C170.985 60.2 171.531 60.0533 172.038 59.76C172.545 59.4667 172.951 59.04 173.258 58.48C173.578 57.9067 173.738 57.24 173.738 56.48ZM181.313 52.58C181.646 52.02 182.086 51.5867 182.633 51.28C183.193 50.96 183.853 50.8 184.613 50.8V53.16H184.033C183.139 53.16 182.459 53.3867 181.993 53.84C181.539 54.2933 181.313 55.08 181.313 56.2V62H179.033V50.98H181.313V52.58ZM190.708 62.18C189.842 62.18 189.062 62.0267 188.368 61.72C187.688 61.4 187.148 60.9733 186.748 60.44C186.348 59.8933 186.135 59.2867 186.108 58.62H188.468C188.508 59.0867 188.728 59.48 189.128 59.8C189.542 60.1067 190.055 60.26 190.668 60.26C191.308 60.26 191.802 60.14 192.148 59.9C192.508 59.6467 192.688 59.3267 192.688 58.94C192.688 58.5267 192.488 58.22 192.088 58.02C191.702 57.82 191.082 57.6 190.228 57.36C189.402 57.1333 188.728 56.9133 188.208 56.7C187.688 56.4867 187.235 56.16 186.848 55.72C186.475 55.28 186.288 54.7 186.288 53.98C186.288 53.3933 186.462 52.86 186.808 52.38C187.155 51.8867 187.648 51.5 188.288 51.22C188.942 50.94 189.688 50.8 190.528 50.8C191.782 50.8 192.788 51.12 193.548 51.76C194.322 52.3867 194.735 53.2467 194.788 54.34H192.508C192.468 53.8467 192.268 53.4533 191.908 53.16C191.548 52.8667 191.062 52.72 190.448 52.72C189.848 52.72 189.388 52.8333 189.068 53.06C188.748 53.2867 188.588 53.5867 188.588 53.96C188.588 54.2533 188.695 54.5 188.908 54.7C189.122 54.9 189.382 55.06 189.688 55.18C189.995 55.2867 190.448 55.4267 191.048 55.6C191.848 55.8133 192.502 56.0333 193.008 56.26C193.528 56.4733 193.975 56.7933 194.348 57.22C194.722 57.6467 194.915 58.2133 194.928 58.92C194.928 59.5467 194.755 60.1067 194.408 60.6C194.062 61.0933 193.568 61.48 192.928 61.76C192.302 62.04 191.562 62.18 190.708 62.18Z" fill="#898989"/>
<defs>
<clipPath id="clip0_3136_1547">
<rect width="60" height="60" fill="white" transform="translate(0.833374 5)"/>
</clipPath>
</defs>
</svg>
