<svg width="245" height="70" viewBox="0 0 245 70" fill="none" xmlns="http://www.w3.org/2000/svg">
<g clip-path="url(#clip0_3136_1555)">
<path d="M55.5147 36.1019V8.77964C55.5147 7.80489 54.7244 7.01465 53.7497 7.01465H6.46186C5.48711 7.01465 4.69687 7.80489 4.69687 8.77964V38.28C3.84544 38.404 3.01307 38.7346 2.27671 39.2812C-0.0446004 40.9273 -0.59363 44.6109 1.3508 46.8827L9.30067 56.5204C14.2217 62.2798 19.4492 62.9854 27.2206 62.9854C33.8896 62.9854 36.8711 63.0148 42.6832 61.6905L48.3427 60.3369C49.2604 61.6184 50.7172 62.4485 52.355 62.4485H55.143C57.9131 62.4485 60.1667 60.0744 60.1667 57.1561V41.3784C60.1668 38.592 58.1117 36.3031 55.5147 36.1019ZM47.5814 39.7326L45.2297 38.5382C41.3631 36.5865 36.8926 36.5142 32.9649 38.3403C31.8934 38.7618 29.5562 40.1759 28.3438 40.1286H20.1835C17.4767 40.1286 15.2745 42.3307 15.2745 45.0376V46.3247C15.2593 46.3087 15.2434 46.2936 15.2284 46.2773L9.40104 39.9519C9.04839 39.5692 8.65221 39.2489 8.22697 38.9919V21.481H22.6708V27.951C22.6708 28.9257 23.4611 29.7159 24.4358 29.7159H35.573C36.5478 29.7159 37.338 28.9257 37.338 27.951V21.481H51.9848V36.1018C49.9226 36.2611 48.203 37.7364 47.5814 39.7326V39.7326ZM26.2007 21.481H33.8079V26.186H26.2007V21.481ZM51.9847 17.951H37.338V10.5446H51.9848V17.951H51.9847ZM33.808 10.5446V17.9511H26.2008V10.5446H33.808ZM22.6707 10.5446V17.9511H8.22685V10.5446H22.6707ZM41.864 58.2568C36.4949 59.4865 33.2613 59.4367 27.2839 59.4367C19.9886 59.4367 16.4637 59.3188 12.0239 54.274L4.07406 44.6363C2.69125 42.8357 5.19589 40.7101 6.80485 42.3435L12.6323 48.669C14.1724 50.2941 16.1105 51.1885 18.4992 51.2411H34.6557C35.6304 51.2411 36.4207 50.4508 36.4207 49.4761C36.4207 48.5013 35.6304 47.7111 34.6557 47.7111H18.8043V45.0374C18.8043 44.277 19.4229 43.6583 20.1834 43.6583H28.3437C30.1821 43.79 32.8356 42.2549 34.4531 41.541C37.3947 40.1733 40.743 40.2274 43.6351 41.6872L47.3315 43.5646V56.9489L41.864 58.2568ZM56.6369 57.156C56.6369 58.1278 55.9668 58.9184 55.1431 58.9184H52.3551C51.5315 58.9184 50.8615 58.1278 50.8615 57.156V41.3784C50.8615 40.4066 51.5316 39.6159 52.3551 39.6159H55.1431C55.9668 39.6159 56.6369 40.4065 56.6369 41.3784V57.156Z" fill="#242424"/>
</g>
<path d="M82.6667 10.55V13.375H75.3917V17.85H80.9667V20.625H75.3917V28H71.8917V10.55H82.6667ZM88.6486 16.3C89.0986 15.5667 89.6819 14.9917 90.3986 14.575C91.1319 14.1583 91.9653 13.95 92.8986 13.95V17.625H91.9736C90.8736 17.625 90.0403 17.8833 89.4736 18.4C88.9236 18.9167 88.6486 19.8167 88.6486 21.1V28H85.1486V14.15H88.6486V16.3ZM108.131 20.775C108.131 21.275 108.098 21.725 108.031 22.125H97.906C97.9893 23.125 98.3393 23.9083 98.956 24.475C99.5727 25.0417 100.331 25.325 101.231 25.325C102.531 25.325 103.456 24.7667 104.006 23.65H107.781C107.381 24.9833 106.614 26.0833 105.481 26.95C104.348 27.8 102.956 28.225 101.306 28.225C99.9727 28.225 98.7727 27.9333 97.706 27.35C96.656 26.75 95.831 25.9083 95.231 24.825C94.6477 23.7417 94.356 22.4917 94.356 21.075C94.356 19.6417 94.6477 18.3833 95.231 17.3C95.8143 16.2167 96.631 15.3833 97.681 14.8C98.731 14.2167 99.9393 13.925 101.306 13.925C102.623 13.925 103.798 14.2083 104.831 14.775C105.881 15.3417 106.689 16.15 107.256 17.2C107.839 18.2333 108.131 19.425 108.131 20.775ZM104.506 19.775C104.489 18.875 104.164 18.1583 103.531 17.625C102.898 17.075 102.123 16.8 101.206 16.8C100.339 16.8 99.606 17.0667 99.006 17.6C98.4227 18.1167 98.0643 18.8417 97.931 19.775H104.506ZM123.561 20.775C123.561 21.275 123.527 21.725 123.461 22.125H113.336C113.419 23.125 113.769 23.9083 114.386 24.475C115.002 25.0417 115.761 25.325 116.661 25.325C117.961 25.325 118.886 24.7667 119.436 23.65H123.211C122.811 24.9833 122.044 26.0833 120.911 26.95C119.777 27.8 118.386 28.225 116.736 28.225C115.402 28.225 114.202 27.9333 113.136 27.35C112.086 26.75 111.261 25.9083 110.661 24.825C110.077 23.7417 109.786 22.4917 109.786 21.075C109.786 19.6417 110.077 18.3833 110.661 17.3C111.244 16.2167 112.061 15.3833 113.111 14.8C114.161 14.2167 115.369 13.925 116.736 13.925C118.052 13.925 119.227 14.2083 120.261 14.775C121.311 15.3417 122.119 16.15 122.686 17.2C123.269 18.2333 123.561 19.425 123.561 20.775ZM119.936 19.775C119.919 18.875 119.594 18.1583 118.961 17.625C118.327 17.075 117.552 16.8 116.636 16.8C115.769 16.8 115.036 17.0667 114.436 17.6C113.852 18.1167 113.494 18.8417 113.361 19.775H119.936ZM138.097 28.175C136.881 28.175 135.781 27.9667 134.797 27.55C133.831 27.1333 133.064 26.5333 132.497 25.75C131.931 24.9667 131.639 24.0417 131.622 22.975H135.372C135.422 23.6917 135.672 24.2583 136.122 24.675C136.589 25.0917 137.222 25.3 138.022 25.3C138.839 25.3 139.481 25.1083 139.947 24.725C140.414 24.325 140.647 23.8083 140.647 23.175C140.647 22.6583 140.489 22.2333 140.172 21.9C139.856 21.5667 139.456 21.3083 138.972 21.125C138.506 20.925 137.856 20.7083 137.022 20.475C135.889 20.1417 134.964 19.8167 134.247 19.5C133.547 19.1667 132.939 18.675 132.422 18.025C131.922 17.3583 131.672 16.475 131.672 15.375C131.672 14.3417 131.931 13.4417 132.447 12.675C132.964 11.9083 133.689 11.325 134.622 10.925C135.556 10.5083 136.622 10.3 137.822 10.3C139.622 10.3 141.081 10.7417 142.197 11.625C143.331 12.4917 143.956 13.7083 144.072 15.275H140.222C140.189 14.675 139.931 14.1833 139.447 13.8C138.981 13.4 138.356 13.2 137.572 13.2C136.889 13.2 136.339 13.375 135.922 13.725C135.522 14.075 135.322 14.5833 135.322 15.25C135.322 15.7167 135.472 16.1083 135.772 16.425C136.089 16.725 136.472 16.975 136.922 17.175C137.389 17.3583 138.039 17.575 138.872 17.825C140.006 18.1583 140.931 18.4917 141.647 18.825C142.364 19.1583 142.981 19.6583 143.497 20.325C144.014 20.9917 144.272 21.8667 144.272 22.95C144.272 23.8833 144.031 24.75 143.547 25.55C143.064 26.35 142.356 26.9917 141.422 27.475C140.489 27.9417 139.381 28.175 138.097 28.175ZM155.107 13.95C156.157 13.95 157.09 14.1833 157.907 14.65C158.723 15.1 159.357 15.775 159.807 16.675C160.273 17.5583 160.507 18.625 160.507 19.875V28H157.007V20.35C157.007 19.25 156.732 18.4083 156.182 17.825C155.632 17.225 154.882 16.925 153.932 16.925C152.965 16.925 152.198 17.225 151.632 17.825C151.082 18.4083 150.807 19.25 150.807 20.35V28H147.307V9.5H150.807V15.875C151.257 15.275 151.857 14.8083 152.607 14.475C153.357 14.125 154.19 13.95 155.107 13.95ZM165.61 12.5C164.993 12.5 164.477 12.3083 164.06 11.925C163.66 11.525 163.46 11.0333 163.46 10.45C163.46 9.86667 163.66 9.38333 164.06 9C164.477 8.6 164.993 8.4 165.61 8.4C166.227 8.4 166.735 8.6 167.135 9C167.552 9.38333 167.76 9.86667 167.76 10.45C167.76 11.0333 167.552 11.525 167.135 11.925C166.735 12.3083 166.227 12.5 165.61 12.5ZM167.335 14.15V28H163.835V14.15H167.335ZM174.293 16.15C174.743 15.5167 175.36 14.9917 176.143 14.575C176.943 14.1417 177.851 13.925 178.868 13.925C180.051 13.925 181.118 14.2167 182.068 14.8C183.035 15.3833 183.793 16.2167 184.343 17.3C184.91 18.3667 185.193 19.6083 185.193 21.025C185.193 22.4417 184.91 23.7 184.343 24.8C183.793 25.8833 183.035 26.725 182.068 27.325C181.118 27.925 180.051 28.225 178.868 28.225C177.851 28.225 176.951 28.0167 176.168 27.6C175.401 27.1833 174.776 26.6583 174.293 26.025V34.6H170.793V14.15H174.293V16.15ZM181.618 21.025C181.618 20.1917 181.443 19.475 181.093 18.875C180.76 18.2583 180.31 17.7917 179.743 17.475C179.193 17.1583 178.593 17 177.943 17C177.31 17 176.71 17.1667 176.143 17.5C175.593 17.8167 175.143 18.2833 174.793 18.9C174.46 19.5167 174.293 20.2417 174.293 21.075C174.293 21.9083 174.46 22.6333 174.793 23.25C175.143 23.8667 175.593 24.3417 176.143 24.675C176.71 24.9917 177.31 25.15 177.943 25.15C178.593 25.15 179.193 24.9833 179.743 24.65C180.31 24.3167 180.76 23.8417 181.093 23.225C181.443 22.6083 181.618 21.875 181.618 21.025ZM191.236 16.15C191.686 15.5167 192.303 14.9917 193.086 14.575C193.886 14.1417 194.795 13.925 195.811 13.925C196.995 13.925 198.061 14.2167 199.011 14.8C199.978 15.3833 200.736 16.2167 201.286 17.3C201.853 18.3667 202.136 19.6083 202.136 21.025C202.136 22.4417 201.853 23.7 201.286 24.8C200.736 25.8833 199.978 26.725 199.011 27.325C198.061 27.925 196.995 28.225 195.811 28.225C194.795 28.225 193.895 28.0167 193.111 27.6C192.345 27.1833 191.72 26.6583 191.236 26.025V34.6H187.736V14.15H191.236V16.15ZM198.561 21.025C198.561 20.1917 198.386 19.475 198.036 18.875C197.703 18.2583 197.253 17.7917 196.686 17.475C196.136 17.1583 195.536 17 194.886 17C194.253 17 193.653 17.1667 193.086 17.5C192.536 17.8167 192.086 18.2833 191.736 18.9C191.403 19.5167 191.236 20.2417 191.236 21.075C191.236 21.9083 191.403 22.6333 191.736 23.25C192.086 23.8667 192.536 24.3417 193.086 24.675C193.653 24.9917 194.253 25.15 194.886 25.15C195.536 25.15 196.136 24.9833 196.686 24.65C197.253 24.3167 197.703 23.8417 198.036 23.225C198.386 22.6083 198.561 21.875 198.561 21.025ZM206.455 12.5C205.838 12.5 205.322 12.3083 204.905 11.925C204.505 11.525 204.305 11.0333 204.305 10.45C204.305 9.86667 204.505 9.38333 204.905 9C205.322 8.6 205.838 8.4 206.455 8.4C207.072 8.4 207.58 8.6 207.98 9C208.397 9.38333 208.605 9.86667 208.605 10.45C208.605 11.0333 208.397 11.525 207.98 11.925C207.58 12.3083 207.072 12.5 206.455 12.5ZM208.18 14.15V28H204.68V14.15H208.18ZM219.313 13.95C220.963 13.95 222.296 14.475 223.313 15.525C224.33 16.5583 224.838 18.0083 224.838 19.875V28H221.338V20.35C221.338 19.25 221.063 18.4083 220.513 17.825C219.963 17.225 219.213 16.925 218.263 16.925C217.296 16.925 216.53 17.225 215.963 17.825C215.413 18.4083 215.138 19.25 215.138 20.35V28H211.638V14.15H215.138V15.875C215.605 15.275 216.196 14.8083 216.913 14.475C217.646 14.125 218.446 13.95 219.313 13.95ZM233.591 13.925C234.624 13.925 235.533 14.1333 236.316 14.55C237.099 14.95 237.716 15.475 238.166 16.125V14.15H241.691V28.1C241.691 29.3833 241.433 30.525 240.916 31.525C240.399 32.5417 239.624 33.3417 238.591 33.925C237.558 34.525 236.308 34.825 234.841 34.825C232.874 34.825 231.258 34.3667 229.991 33.45C228.741 32.5333 228.033 31.2833 227.866 29.7H231.341C231.524 30.3333 231.916 30.8333 232.516 31.2C233.133 31.5833 233.874 31.775 234.741 31.775C235.758 31.775 236.583 31.4667 237.216 30.85C237.849 30.25 238.166 29.3333 238.166 28.1V25.95C237.716 26.6 237.091 27.1417 236.291 27.575C235.508 28.0083 234.608 28.225 233.591 28.225C232.424 28.225 231.358 27.925 230.391 27.325C229.424 26.725 228.658 25.8833 228.091 24.8C227.541 23.7 227.266 22.4417 227.266 21.025C227.266 19.625 227.541 18.3833 228.091 17.3C228.658 16.2167 229.416 15.3833 230.366 14.8C231.333 14.2167 232.408 13.925 233.591 13.925ZM238.166 21.075C238.166 20.225 237.999 19.5 237.666 18.9C237.333 18.2833 236.883 17.8167 236.316 17.5C235.749 17.1667 235.141 17 234.491 17C233.841 17 233.241 17.1583 232.691 17.475C232.141 17.7917 231.691 18.2583 231.341 18.875C231.008 19.475 230.841 20.1917 230.841 21.025C230.841 21.8583 231.008 22.5917 231.341 23.225C231.691 23.8417 232.141 24.3167 232.691 24.65C233.258 24.9833 233.858 25.15 234.491 25.15C235.141 25.15 235.749 24.9917 236.316 24.675C236.883 24.3417 237.333 23.875 237.666 23.275C237.999 22.6583 238.166 21.925 238.166 21.075Z" fill="#242424"/>
<path d="M78.0067 62.14C76.7134 62.14 75.5201 61.84 74.4267 61.24C73.3467 60.6267 72.4867 59.78 71.8467 58.7C71.2201 57.6067 70.9067 56.38 70.9067 55.02C70.9067 53.66 71.2201 52.44 71.8467 51.36C72.4867 50.28 73.3467 49.44 74.4267 48.84C75.5201 48.2267 76.7134 47.92 78.0067 47.92C79.3134 47.92 80.5067 48.2267 81.5867 48.84C82.6801 49.44 83.5401 50.28 84.1667 51.36C84.7934 52.44 85.1067 53.66 85.1067 55.02C85.1067 56.38 84.7934 57.6067 84.1667 58.7C83.5401 59.78 82.6801 60.6267 81.5867 61.24C80.5067 61.84 79.3134 62.14 78.0067 62.14ZM78.0067 60.16C78.9267 60.16 79.7467 59.9533 80.4667 59.54C81.1867 59.1133 81.7467 58.5133 82.1467 57.74C82.5601 56.9533 82.7667 56.0467 82.7667 55.02C82.7667 53.9933 82.5601 53.0933 82.1467 52.32C81.7467 51.5467 81.1867 50.9533 80.4667 50.54C79.7467 50.1267 78.9267 49.92 78.0067 49.92C77.0867 49.92 76.2667 50.1267 75.5467 50.54C74.8267 50.9533 74.2601 51.5467 73.8467 52.32C73.4467 53.0933 73.2467 53.9933 73.2467 55.02C73.2467 56.0467 73.4467 56.9533 73.8467 57.74C74.2601 58.5133 74.8267 59.1133 75.5467 59.54C76.2667 59.9533 77.0867 60.16 78.0067 60.16ZM89.6303 52.58C89.9637 52.02 90.4037 51.5867 90.9503 51.28C91.5103 50.96 92.1703 50.8 92.9303 50.8V53.16H92.3503C91.457 53.16 90.777 53.3867 90.3103 53.84C89.857 54.2933 89.6303 55.08 89.6303 56.2V62H87.3503V50.98H89.6303V52.58ZM94.2661 56.44C94.2661 55.3333 94.4928 54.3533 94.9461 53.5C95.4128 52.6467 96.0395 51.9867 96.8261 51.52C97.6261 51.04 98.5128 50.8 99.4861 50.8C100.206 50.8 100.913 50.96 101.606 51.28C102.313 51.5867 102.873 52 103.286 52.52V47.2H105.586V62H103.286V60.34C102.913 60.8733 102.393 61.3133 101.726 61.66C101.073 62.0067 100.319 62.18 99.4661 62.18C98.5061 62.18 97.6261 61.94 96.8261 61.46C96.0395 60.9667 95.4128 60.2867 94.9461 59.42C94.4928 58.54 94.2661 57.5467 94.2661 56.44ZM103.286 56.48C103.286 55.72 103.126 55.06 102.806 54.5C102.499 53.94 102.093 53.5133 101.586 53.22C101.079 52.9267 100.533 52.78 99.9461 52.78C99.3595 52.78 98.8128 52.9267 98.3061 53.22C97.7995 53.5 97.3861 53.92 97.0661 54.48C96.7595 55.0267 96.6061 55.68 96.6061 56.44C96.6061 57.2 96.7595 57.8667 97.0661 58.44C97.3861 59.0133 97.7995 59.4533 98.3061 59.76C98.8261 60.0533 99.3728 60.2 99.9461 60.2C100.533 60.2 101.079 60.0533 101.586 59.76C102.093 59.4667 102.499 59.04 102.806 58.48C103.126 57.9067 103.286 57.24 103.286 56.48ZM118.681 56.22C118.681 56.6333 118.654 57.0067 118.601 57.34H110.181C110.247 58.22 110.574 58.9267 111.161 59.46C111.747 59.9933 112.467 60.26 113.321 60.26C114.547 60.26 115.414 59.7467 115.921 58.72H118.381C118.047 59.7333 117.441 60.5667 116.561 61.22C115.694 61.86 114.614 62.18 113.321 62.18C112.267 62.18 111.321 61.9467 110.481 61.48C109.654 61 109.001 60.3333 108.521 59.48C108.054 58.6133 107.821 57.6133 107.821 56.48C107.821 55.3467 108.047 54.3533 108.501 53.5C108.967 52.6333 109.614 51.9667 110.441 51.5C111.281 51.0333 112.241 50.8 113.321 50.8C114.361 50.8 115.287 51.0267 116.101 51.48C116.914 51.9333 117.547 52.5733 118.001 53.4C118.454 54.2133 118.681 55.1533 118.681 56.22ZM116.301 55.5C116.287 54.66 115.987 53.9867 115.401 53.48C114.814 52.9733 114.087 52.72 113.221 52.72C112.434 52.72 111.761 52.9733 111.201 53.48C110.641 53.9733 110.307 54.6467 110.201 55.5H116.301ZM123.205 52.58C123.538 52.02 123.978 51.5867 124.525 51.28C125.085 50.96 125.745 50.8 126.505 50.8V53.16H125.925C125.031 53.16 124.351 53.3867 123.885 53.84C123.431 54.2933 123.205 55.08 123.205 56.2V62H120.925V50.98H123.205V52.58ZM138.576 62.18C137.536 62.18 136.596 61.9467 135.756 61.48C134.916 61 134.256 60.3333 133.776 59.48C133.296 58.6133 133.056 57.6133 133.056 56.48C133.056 55.36 133.302 54.3667 133.796 53.5C134.289 52.6333 134.962 51.9667 135.816 51.5C136.669 51.0333 137.622 50.8 138.676 50.8C139.729 50.8 140.682 51.0333 141.536 51.5C142.389 51.9667 143.062 52.6333 143.556 53.5C144.049 54.3667 144.296 55.36 144.296 56.48C144.296 57.6 144.042 58.5933 143.536 59.46C143.029 60.3267 142.336 61 141.456 61.48C140.589 61.9467 139.629 62.18 138.576 62.18ZM138.576 60.2C139.162 60.2 139.709 60.06 140.216 59.78C140.736 59.5 141.156 59.08 141.476 58.52C141.796 57.96 141.956 57.28 141.956 56.48C141.956 55.68 141.802 55.0067 141.496 54.46C141.189 53.9 140.782 53.48 140.276 53.2C139.769 52.92 139.222 52.78 138.636 52.78C138.049 52.78 137.502 52.92 136.996 53.2C136.502 53.48 136.109 53.9 135.816 54.46C135.522 55.0067 135.376 55.68 135.376 56.48C135.376 57.6667 135.676 58.5867 136.276 59.24C136.889 59.88 137.656 60.2 138.576 60.2ZM150.81 59.96L153.93 50.98H156.35L152.15 62H149.43L145.25 50.98H147.69L150.81 59.96ZM168.173 56.22C168.173 56.6333 168.146 57.0067 168.093 57.34H159.673C159.74 58.22 160.066 58.9267 160.653 59.46C161.24 59.9933 161.96 60.26 162.813 60.26C164.04 60.26 164.906 59.7467 165.413 58.72H167.873C167.54 59.7333 166.933 60.5667 166.053 61.22C165.186 61.86 164.106 62.18 162.813 62.18C161.76 62.18 160.813 61.9467 159.973 61.48C159.146 61 158.493 60.3333 158.013 59.48C157.546 58.6133 157.313 57.6133 157.313 56.48C157.313 55.3467 157.54 54.3533 157.993 53.5C158.46 52.6333 159.106 51.9667 159.933 51.5C160.773 51.0333 161.733 50.8 162.813 50.8C163.853 50.8 164.78 51.0267 165.593 51.48C166.406 51.9333 167.04 52.5733 167.493 53.4C167.946 54.2133 168.173 55.1533 168.173 56.22ZM165.793 55.5C165.78 54.66 165.48 53.9867 164.893 53.48C164.306 52.9733 163.58 52.72 162.713 52.72C161.926 52.72 161.253 52.9733 160.693 53.48C160.133 53.9733 159.8 54.6467 159.693 55.5H165.793ZM172.697 52.58C173.03 52.02 173.47 51.5867 174.017 51.28C174.577 50.96 175.237 50.8 175.997 50.8V53.16H175.417C174.523 53.16 173.843 53.3867 173.377 53.84C172.923 54.2933 172.697 55.08 172.697 56.2V62H170.417V50.98H172.697V52.58ZM182.688 49.5V47.42H186.848V62H184.548V49.5H182.688ZM199.38 49.38H192.68V53.36C192.96 52.9867 193.373 52.6733 193.92 52.42C194.48 52.1667 195.073 52.04 195.7 52.04C196.82 52.04 197.727 52.28 198.42 52.76C199.127 53.24 199.627 53.8467 199.92 54.58C200.227 55.3133 200.38 56.0867 200.38 56.9C200.38 57.8867 200.187 58.7667 199.8 59.54C199.427 60.3 198.86 60.9 198.1 61.34C197.353 61.78 196.433 62 195.34 62C193.887 62 192.72 61.64 191.84 60.92C190.96 60.2 190.433 59.2467 190.26 58.06H192.48C192.627 58.6867 192.953 59.1867 193.46 59.56C193.967 59.92 194.6 60.1 195.36 60.1C196.307 60.1 197.013 59.8133 197.48 59.24C197.96 58.6667 198.2 57.9067 198.2 56.96C198.2 56 197.96 55.2667 197.48 54.76C197 54.24 196.293 53.98 195.36 53.98C194.707 53.98 194.153 54.1467 193.7 54.48C193.26 54.8 192.94 55.24 192.74 55.8H190.58V47.38H199.38V49.38ZM202.753 54.52C202.753 52.2133 203.14 50.4133 203.913 49.12C204.7 47.8133 206.047 47.16 207.953 47.16C209.86 47.16 211.2 47.8133 211.973 49.12C212.76 50.4133 213.153 52.2133 213.153 54.52C213.153 56.8533 212.76 58.68 211.973 60C211.2 61.3067 209.86 61.96 207.953 61.96C206.047 61.96 204.7 61.3067 203.913 60C203.14 58.68 202.753 56.8533 202.753 54.52ZM210.913 54.52C210.913 53.44 210.84 52.5267 210.693 51.78C210.56 51.0333 210.28 50.4267 209.853 49.96C209.427 49.48 208.793 49.24 207.953 49.24C207.113 49.24 206.48 49.48 206.053 49.96C205.627 50.4267 205.34 51.0333 205.193 51.78C205.06 52.5267 204.993 53.44 204.993 54.52C204.993 55.64 205.06 56.58 205.193 57.34C205.327 58.1 205.607 58.7133 206.033 59.18C206.473 59.6467 207.113 59.88 207.953 59.88C208.793 59.88 209.427 59.6467 209.853 59.18C210.293 58.7133 210.58 58.1 210.713 57.34C210.847 56.58 210.913 55.64 210.913 54.52ZM230.441 58.04C230.441 58.7067 230.275 59.3333 229.941 59.92C229.621 60.5067 229.141 61 228.501 61.4C227.875 61.8 227.128 62.04 226.261 62.12V63.74H224.961V62.12C223.708 62 222.695 61.6067 221.921 60.94C221.148 60.2733 220.761 59.3933 220.761 58.3H223.201C223.241 58.82 223.408 59.2533 223.701 59.6C223.995 59.9333 224.415 60.1467 224.961 60.24V55.84C224.068 55.6133 223.341 55.3867 222.781 55.16C222.221 54.92 221.741 54.5467 221.341 54.04C220.955 53.5333 220.761 52.84 220.761 51.96C220.761 50.8533 221.148 49.94 221.921 49.22C222.695 48.4867 223.708 48.06 224.961 47.94V46.32H226.261V47.94C227.435 48.0467 228.375 48.42 229.081 49.06C229.801 49.6867 230.208 50.5533 230.301 51.66H227.861C227.821 51.2467 227.661 50.88 227.381 50.56C227.101 50.2267 226.728 50 226.261 49.88V54.2C227.155 54.4133 227.881 54.64 228.441 54.88C229.001 55.1067 229.475 55.4733 229.861 55.98C230.248 56.4733 230.441 57.16 230.441 58.04ZM223.081 51.84C223.081 52.3867 223.241 52.8133 223.561 53.12C223.895 53.4267 224.361 53.6733 224.961 53.86V49.82C224.388 49.8867 223.928 50.0933 223.581 50.44C223.248 50.7867 223.081 51.2533 223.081 51.84ZM226.261 60.24C226.848 60.1467 227.308 59.9133 227.641 59.54C227.975 59.1533 228.141 58.6933 228.141 58.16C228.141 57.6267 227.975 57.2133 227.641 56.92C227.321 56.6133 226.861 56.3667 226.261 56.18V60.24Z" fill="#898989"/>
<defs>
<clipPath id="clip0_3136_1555">
<rect width="60" height="60" fill="white" transform="translate(0.166748 5)"/>
</clipPath>
</defs>
</svg>
