<svg width="260" height="70" viewBox="0 0 260 70" fill="none" xmlns="http://www.w3.org/2000/svg">
<g clip-path="url(#clip0_3136_1561)">
<path d="M55.1935 28.9628C54.7992 15.6825 43.8741 5 30.4999 5C17.1257 5 6.20059 15.6825 5.80612 28.9628L4.0293 30.7396V42.7898L5.794 44.5545V52.7647C5.794 57.5652 9.69941 61.4706 14.4999 61.4706H16.6858C17.4142 63.5246 19.3758 65 21.6764 65H25.2058C27.5079 65 29.4705 63.5225 30.1978 61.4664C30.2986 61.4681 30.3997 61.4706 30.4999 61.4706C39.022 61.4706 46.1526 55.3981 47.7921 47.3529H52.4073L56.9705 42.7898V30.7396L55.1935 28.9628ZM30.4999 8.52941C40.9741 8.52941 49.6953 16.174 51.3806 26.1765H47.7921C46.1526 18.1313 39.022 12.0588 30.4999 12.0588C21.9778 12.0588 14.8472 18.1313 13.2077 26.1765H9.61918C11.3045 16.174 20.0257 8.52941 30.4999 8.52941V8.52941ZM44.1708 26.1765C38.4662 26.1594 34.4368 26.5068 31.1147 21.6506L29.5015 19.2926L28.1152 21.7907C26.0952 25.4306 23.3748 26.1765 19.9117 26.1765H16.8289C18.4001 20.0944 23.9337 15.5882 30.4999 15.5882C37.0661 15.5882 42.5997 20.0944 44.1708 26.1765V26.1765ZM12.8528 43.8235H10.0544L7.55871 41.3279V32.2015L10.0544 29.7059H12.8528V43.8235ZM9.32341 52.7647V47.3529H13.2042C13.8686 50.6441 15.4581 53.6652 17.8129 56.0916C17.3193 56.6191 16.9321 57.2467 16.6858 57.9412H14.4999C11.6455 57.9412 9.32341 55.6191 9.32341 52.7647V52.7647ZM25.2058 61.4706H21.6764C20.7032 61.4706 19.9117 60.6791 19.9117 59.7059C19.9117 58.7328 20.7032 57.9412 21.6764 57.9412H25.2058C26.1788 57.9412 26.9705 58.7328 26.9705 59.7059C26.9705 60.6791 26.1788 61.4706 25.2058 61.4706ZM44.6175 43.8235C44.6175 51.608 38.2844 57.9412 30.4999 57.9412C30.3987 57.9412 30.2967 57.9392 30.1948 57.9368C29.4652 55.8851 27.5047 54.4118 25.2058 54.4118C21.5822 54.4198 21.64 54.3936 21.1884 54.4352C18.1246 51.7498 16.3822 47.9248 16.3822 43.8235V29.7059H19.9117C23.0348 29.7059 26.8384 29.1909 29.7826 25.6076C33.6673 29.6786 38.4146 29.7059 42.6761 29.7059H44.6175V43.8235ZM53.4411 41.3279L50.9454 43.8235H48.1469V29.7059H50.9454L53.4411 32.2015V41.3279Z" fill="#242424"/>
</g>
<path d="M72.925 24.05C74.525 22.7167 75.8 21.6083 76.75 20.725C77.7 19.825 78.4917 18.8917 79.125 17.925C79.7583 16.9583 80.075 16.0083 80.075 15.075C80.075 14.225 79.875 13.5583 79.475 13.075C79.075 12.5917 78.4583 12.35 77.625 12.35C76.7917 12.35 76.15 12.6333 75.7 13.2C75.25 13.75 75.0167 14.5083 75 15.475H71.6C71.6667 13.475 72.2583 11.9583 73.375 10.925C74.5083 9.89167 75.9417 9.375 77.675 9.375C79.575 9.375 81.0333 9.88333 82.05 10.9C83.0667 11.9 83.575 13.225 83.575 14.875C83.575 16.175 83.225 17.4167 82.525 18.6C81.825 19.7833 81.025 20.8167 80.125 21.7C79.225 22.5667 78.05 23.6167 76.6 24.85H83.975V27.75H71.625V25.15L72.925 24.05ZM86.0305 24.45V21.7L94.2055 10H98.2805V21.4H100.48V24.45H98.2805V28H94.7805V24.45H86.0305ZM95.0055 13.75L89.8805 21.4H95.0055V13.75ZM118.441 4.325L111.691 32.525H108.266L115.016 4.325H118.441ZM138.381 12.425L131.731 28H128.181L134.881 12.825H126.331V9.825H138.381V12.425ZM152.859 28.175C151.643 28.175 150.543 27.9667 149.559 27.55C148.593 27.1333 147.826 26.5333 147.259 25.75C146.693 24.9667 146.401 24.0417 146.384 22.975H150.134C150.184 23.6917 150.434 24.2583 150.884 24.675C151.351 25.0917 151.984 25.3 152.784 25.3C153.601 25.3 154.243 25.1083 154.709 24.725C155.176 24.325 155.409 23.8083 155.409 23.175C155.409 22.6583 155.251 22.2333 154.934 21.9C154.618 21.5667 154.218 21.3083 153.734 21.125C153.268 20.925 152.618 20.7083 151.784 20.475C150.651 20.1417 149.726 19.8167 149.009 19.5C148.309 19.1667 147.701 18.675 147.184 18.025C146.684 17.3583 146.434 16.475 146.434 15.375C146.434 14.3417 146.693 13.4417 147.209 12.675C147.726 11.9083 148.451 11.325 149.384 10.925C150.318 10.5083 151.384 10.3 152.584 10.3C154.384 10.3 155.843 10.7417 156.959 11.625C158.093 12.4917 158.718 13.7083 158.834 15.275H154.984C154.951 14.675 154.693 14.1833 154.209 13.8C153.743 13.4 153.118 13.2 152.334 13.2C151.651 13.2 151.101 13.375 150.684 13.725C150.284 14.075 150.084 14.5833 150.084 15.25C150.084 15.7167 150.234 16.1083 150.534 16.425C150.851 16.725 151.234 16.975 151.684 17.175C152.151 17.3583 152.801 17.575 153.634 17.825C154.768 18.1583 155.693 18.4917 156.409 18.825C157.126 19.1583 157.743 19.6583 158.259 20.325C158.776 20.9917 159.034 21.8667 159.034 22.95C159.034 23.8833 158.793 24.75 158.309 25.55C157.826 26.35 157.118 26.9917 156.184 27.475C155.251 27.9417 154.143 28.175 152.859 28.175ZM175.144 14.15V28H171.619V26.25C171.169 26.85 170.577 27.325 169.844 27.675C169.127 28.0083 168.344 28.175 167.494 28.175C166.41 28.175 165.452 27.95 164.619 27.5C163.785 27.0333 163.127 26.3583 162.644 25.475C162.177 24.575 161.944 23.5083 161.944 22.275V14.15H165.444V21.775C165.444 22.875 165.719 23.725 166.269 24.325C166.819 24.9083 167.569 25.2 168.519 25.2C169.485 25.2 170.244 24.9083 170.794 24.325C171.344 23.725 171.619 22.875 171.619 21.775V14.15H175.144ZM182.097 16.15C182.547 15.5167 183.164 14.9917 183.947 14.575C184.747 14.1417 185.655 13.925 186.672 13.925C187.855 13.925 188.922 14.2167 189.872 14.8C190.839 15.3833 191.597 16.2167 192.147 17.3C192.714 18.3667 192.997 19.6083 192.997 21.025C192.997 22.4417 192.714 23.7 192.147 24.8C191.597 25.8833 190.839 26.725 189.872 27.325C188.922 27.925 187.855 28.225 186.672 28.225C185.655 28.225 184.755 28.0167 183.972 27.6C183.205 27.1833 182.58 26.6583 182.097 26.025V34.6H178.597V14.15H182.097V16.15ZM189.422 21.025C189.422 20.1917 189.247 19.475 188.897 18.875C188.564 18.2583 188.114 17.7917 187.547 17.475C186.997 17.1583 186.397 17 185.747 17C185.114 17 184.514 17.1667 183.947 17.5C183.397 17.8167 182.947 18.2833 182.597 18.9C182.264 19.5167 182.097 20.2417 182.097 21.075C182.097 21.9083 182.264 22.6333 182.597 23.25C182.947 23.8667 183.397 24.3417 183.947 24.675C184.514 24.9917 185.114 25.15 185.747 25.15C186.397 25.15 186.997 24.9833 187.547 24.65C188.114 24.3167 188.564 23.8417 188.897 23.225C189.247 22.6083 189.422 21.875 189.422 21.025ZM199.04 16.15C199.49 15.5167 200.107 14.9917 200.89 14.575C201.69 14.1417 202.599 13.925 203.615 13.925C204.799 13.925 205.865 14.2167 206.815 14.8C207.782 15.3833 208.54 16.2167 209.09 17.3C209.657 18.3667 209.94 19.6083 209.94 21.025C209.94 22.4417 209.657 23.7 209.09 24.8C208.54 25.8833 207.782 26.725 206.815 27.325C205.865 27.925 204.799 28.225 203.615 28.225C202.599 28.225 201.699 28.0167 200.915 27.6C200.149 27.1833 199.524 26.6583 199.04 26.025V34.6H195.54V14.15H199.04V16.15ZM206.365 21.025C206.365 20.1917 206.19 19.475 205.84 18.875C205.507 18.2583 205.057 17.7917 204.49 17.475C203.94 17.1583 203.34 17 202.69 17C202.057 17 201.457 17.1667 200.89 17.5C200.34 17.8167 199.89 18.2833 199.54 18.9C199.207 19.5167 199.04 20.2417 199.04 21.075C199.04 21.9083 199.207 22.6333 199.54 23.25C199.89 23.8667 200.34 24.3417 200.89 24.675C201.457 24.9917 202.057 25.15 202.69 25.15C203.34 25.15 203.94 24.9833 204.49 24.65C205.057 24.3167 205.507 23.8417 205.84 23.225C206.19 22.6083 206.365 21.875 206.365 21.025ZM218.634 28.225C217.3 28.225 216.1 27.9333 215.034 27.35C213.967 26.75 213.125 25.9083 212.509 24.825C211.909 23.7417 211.609 22.4917 211.609 21.075C211.609 19.6583 211.917 18.4083 212.534 17.325C213.167 16.2417 214.025 15.4083 215.109 14.825C216.192 14.225 217.4 13.925 218.734 13.925C220.067 13.925 221.275 14.225 222.359 14.825C223.442 15.4083 224.292 16.2417 224.909 17.325C225.542 18.4083 225.859 19.6583 225.859 21.075C225.859 22.4917 225.534 23.7417 224.884 24.825C224.25 25.9083 223.384 26.75 222.284 27.35C221.2 27.9333 219.984 28.225 218.634 28.225ZM218.634 25.175C219.267 25.175 219.859 25.025 220.409 24.725C220.975 24.4083 221.425 23.9417 221.759 23.325C222.092 22.7083 222.259 21.9583 222.259 21.075C222.259 19.7583 221.909 18.75 221.209 18.05C220.525 17.3333 219.684 16.975 218.684 16.975C217.684 16.975 216.842 17.3333 216.159 18.05C215.492 18.75 215.159 19.7583 215.159 21.075C215.159 22.3917 215.484 23.4083 216.134 24.125C216.8 24.825 217.634 25.175 218.634 25.175ZM231.926 16.3C232.376 15.5667 232.96 14.9917 233.676 14.575C234.41 14.1583 235.243 13.95 236.176 13.95V17.625H235.251C234.151 17.625 233.318 17.8833 232.751 18.4C232.201 18.9167 231.926 19.8167 231.926 21.1V28H228.426V14.15H231.926V16.3ZM242.609 17.025V23.725C242.609 24.1917 242.717 24.5333 242.934 24.75C243.167 24.95 243.55 25.05 244.084 25.05H245.709V28H243.509C240.559 28 239.084 26.5667 239.084 23.7V17.025H237.434V14.15H239.084V10.725H242.609V14.15H245.709V17.025H242.609Z" fill="#242424"/>
<path d="M76.54 48.1C78.02 48.1 79.3133 48.3867 80.42 48.96C81.54 49.52 82.4 50.3333 83 51.4C83.6133 52.4533 83.92 53.6867 83.92 55.1C83.92 56.5133 83.6133 57.74 83 58.78C82.4 59.82 81.54 60.62 80.42 61.18C79.3133 61.7267 78.02 62 76.54 62H72V48.1H76.54ZM76.54 60.14C78.1667 60.14 79.4133 59.7 80.28 58.82C81.1467 57.94 81.58 56.7 81.58 55.1C81.58 53.4867 81.1467 52.2267 80.28 51.32C79.4133 50.4133 78.1667 49.96 76.54 49.96H74.28V60.14H76.54ZM96.2797 56.22C96.2797 56.6333 96.253 57.0067 96.1997 57.34H87.7797C87.8464 58.22 88.173 58.9267 88.7597 59.46C89.3464 59.9933 90.0664 60.26 90.9197 60.26C92.1464 60.26 93.013 59.7467 93.5197 58.72H95.9797C95.6464 59.7333 95.0397 60.5667 94.1597 61.22C93.293 61.86 92.213 62.18 90.9197 62.18C89.8664 62.18 88.9197 61.9467 88.0797 61.48C87.253 61 86.5997 60.3333 86.1197 59.48C85.653 58.6133 85.4197 57.6133 85.4197 56.48C85.4197 55.3467 85.6464 54.3533 86.0997 53.5C86.5664 52.6333 87.213 51.9667 88.0397 51.5C88.8797 51.0333 89.8397 50.8 90.9197 50.8C91.9597 50.8 92.8864 51.0267 93.6997 51.48C94.513 51.9333 95.1464 52.5733 95.5997 53.4C96.053 54.2133 96.2797 55.1533 96.2797 56.22ZM93.8997 55.5C93.8864 54.66 93.5864 53.9867 92.9997 53.48C92.413 52.9733 91.6864 52.72 90.8197 52.72C90.033 52.72 89.3597 52.9733 88.7997 53.48C88.2397 53.9733 87.9064 54.6467 87.7997 55.5H93.8997ZM97.7634 56.44C97.7634 55.3333 97.9901 54.3533 98.4434 53.5C98.9101 52.6467 99.5368 51.9867 100.323 51.52C101.123 51.04 102.01 50.8 102.983 50.8C103.703 50.8 104.41 50.96 105.103 51.28C105.81 51.5867 106.37 52 106.783 52.52V47.2H109.083V62H106.783V60.34C106.41 60.8733 105.89 61.3133 105.223 61.66C104.57 62.0067 103.817 62.18 102.963 62.18C102.003 62.18 101.123 61.94 100.323 61.46C99.5368 60.9667 98.9101 60.2867 98.4434 59.42C97.9901 58.54 97.7634 57.5467 97.7634 56.44ZM106.783 56.48C106.783 55.72 106.623 55.06 106.303 54.5C105.997 53.94 105.59 53.5133 105.083 53.22C104.577 52.9267 104.03 52.78 103.443 52.78C102.857 52.78 102.31 52.9267 101.803 53.22C101.297 53.5 100.883 53.92 100.563 54.48C100.257 55.0267 100.103 55.68 100.103 56.44C100.103 57.2 100.257 57.8667 100.563 58.44C100.883 59.0133 101.297 59.4533 101.803 59.76C102.323 60.0533 102.87 60.2 103.443 60.2C104.03 60.2 104.577 60.0533 105.083 59.76C105.59 59.4667 105.997 59.04 106.303 58.48C106.623 57.9067 106.783 57.24 106.783 56.48ZM113.238 49.52C112.825 49.52 112.478 49.38 112.198 49.1C111.918 48.82 111.778 48.4733 111.778 48.06C111.778 47.6467 111.918 47.3 112.198 47.02C112.478 46.74 112.825 46.6 113.238 46.6C113.638 46.6 113.978 46.74 114.258 47.02C114.538 47.3 114.678 47.6467 114.678 48.06C114.678 48.4733 114.538 48.82 114.258 49.1C113.978 49.38 113.638 49.52 113.238 49.52ZM114.358 50.98V62H112.078V50.98H114.358ZM116.592 56.48C116.592 55.3467 116.818 54.3533 117.272 53.5C117.738 52.6333 118.378 51.9667 119.192 51.5C120.005 51.0333 120.938 50.8 121.992 50.8C123.325 50.8 124.425 51.12 125.292 51.76C126.172 52.3867 126.765 53.2867 127.072 54.46H124.612C124.412 53.9133 124.092 53.4867 123.652 53.18C123.212 52.8733 122.658 52.72 121.992 52.72C121.058 52.72 120.312 53.0533 119.752 53.72C119.205 54.3733 118.932 55.2933 118.932 56.48C118.932 57.6667 119.205 58.5933 119.752 59.26C120.312 59.9267 121.058 60.26 121.992 60.26C123.312 60.26 124.185 59.68 124.612 58.52H127.072C126.752 59.64 126.152 60.5333 125.272 61.2C124.392 61.8533 123.298 62.18 121.992 62.18C120.938 62.18 120.005 61.9467 119.192 61.48C118.378 61 117.738 60.3333 117.272 59.48C116.818 58.6133 116.592 57.6133 116.592 56.48ZM128.584 56.44C128.584 55.3333 128.81 54.3533 129.264 53.5C129.73 52.6467 130.357 51.9867 131.144 51.52C131.944 51.04 132.824 50.8 133.784 50.8C134.65 50.8 135.404 50.9733 136.044 51.32C136.697 51.6533 137.217 52.0733 137.604 52.58V50.98H139.904V62H137.604V60.36C137.217 60.88 136.69 61.3133 136.024 61.66C135.357 62.0067 134.597 62.18 133.744 62.18C132.797 62.18 131.93 61.94 131.144 61.46C130.357 60.9667 129.73 60.2867 129.264 59.42C128.81 58.54 128.584 57.5467 128.584 56.44ZM137.604 56.48C137.604 55.72 137.444 55.06 137.124 54.5C136.817 53.94 136.41 53.5133 135.904 53.22C135.397 52.9267 134.85 52.78 134.264 52.78C133.677 52.78 133.13 52.9267 132.624 53.22C132.117 53.5 131.704 53.92 131.384 54.48C131.077 55.0267 130.924 55.68 130.924 56.44C130.924 57.2 131.077 57.8667 131.384 58.44C131.704 59.0133 132.117 59.4533 132.624 59.76C133.144 60.0533 133.69 60.2 134.264 60.2C134.85 60.2 135.397 60.0533 135.904 59.76C136.41 59.4667 136.817 59.04 137.124 58.48C137.444 57.9067 137.604 57.24 137.604 56.48ZM145.558 52.84V58.94C145.558 59.3533 145.652 59.6533 145.838 59.84C146.038 60.0133 146.372 60.1 146.838 60.1H148.238V62H146.438C145.412 62 144.625 61.76 144.078 61.28C143.532 60.8 143.258 60.02 143.258 58.94V52.84H141.958V50.98H143.258V48.24H145.558V50.98H148.238V52.84H145.558ZM160.44 56.22C160.44 56.6333 160.413 57.0067 160.36 57.34H151.94C152.007 58.22 152.333 58.9267 152.92 59.46C153.507 59.9933 154.227 60.26 155.08 60.26C156.307 60.26 157.173 59.7467 157.68 58.72H160.14C159.807 59.7333 159.2 60.5667 158.32 61.22C157.453 61.86 156.373 62.18 155.08 62.18C154.027 62.18 153.08 61.9467 152.24 61.48C151.413 61 150.76 60.3333 150.28 59.48C149.813 58.6133 149.58 57.6133 149.58 56.48C149.58 55.3467 149.807 54.3533 150.26 53.5C150.727 52.6333 151.373 51.9667 152.2 51.5C153.04 51.0333 154 50.8 155.08 50.8C156.12 50.8 157.047 51.0267 157.86 51.48C158.673 51.9333 159.307 52.5733 159.76 53.4C160.213 54.2133 160.44 55.1533 160.44 56.22ZM158.06 55.5C158.047 54.66 157.747 53.9867 157.16 53.48C156.573 52.9733 155.847 52.72 154.98 52.72C154.193 52.72 153.52 52.9733 152.96 53.48C152.4 53.9733 152.067 54.6467 151.96 55.5H158.06ZM161.924 56.44C161.924 55.3333 162.15 54.3533 162.604 53.5C163.07 52.6467 163.697 51.9867 164.484 51.52C165.284 51.04 166.17 50.8 167.144 50.8C167.864 50.8 168.57 50.96 169.264 51.28C169.97 51.5867 170.53 52 170.944 52.52V47.2H173.244V62H170.944V60.34C170.57 60.8733 170.05 61.3133 169.384 61.66C168.73 62.0067 167.977 62.18 167.124 62.18C166.164 62.18 165.284 61.94 164.484 61.46C163.697 60.9667 163.07 60.2867 162.604 59.42C162.15 58.54 161.924 57.5467 161.924 56.44ZM170.944 56.48C170.944 55.72 170.784 55.06 170.464 54.5C170.157 53.94 169.75 53.5133 169.244 53.22C168.737 52.9267 168.19 52.78 167.604 52.78C167.017 52.78 166.47 52.9267 165.964 53.22C165.457 53.5 165.044 53.92 164.724 54.48C164.417 55.0267 164.264 55.68 164.264 56.44C164.264 57.2 164.417 57.8667 164.724 58.44C165.044 59.0133 165.457 59.4533 165.964 59.76C166.484 60.0533 167.03 60.2 167.604 60.2C168.19 60.2 168.737 60.0533 169.244 59.76C169.75 59.4667 170.157 59.04 170.464 58.48C170.784 57.9067 170.944 57.24 170.944 56.48ZM185.434 62.18C184.567 62.18 183.787 62.0267 183.094 61.72C182.414 61.4 181.874 60.9733 181.474 60.44C181.074 59.8933 180.86 59.2867 180.834 58.62H183.194C183.234 59.0867 183.454 59.48 183.854 59.8C184.267 60.1067 184.78 60.26 185.394 60.26C186.034 60.26 186.527 60.14 186.874 59.9C187.234 59.6467 187.414 59.3267 187.414 58.94C187.414 58.5267 187.214 58.22 186.814 58.02C186.427 57.82 185.807 57.6 184.954 57.36C184.127 57.1333 183.454 56.9133 182.934 56.7C182.414 56.4867 181.96 56.16 181.574 55.72C181.2 55.28 181.014 54.7 181.014 53.98C181.014 53.3933 181.187 52.86 181.534 52.38C181.88 51.8867 182.374 51.5 183.014 51.22C183.667 50.94 184.414 50.8 185.254 50.8C186.507 50.8 187.514 51.12 188.274 51.76C189.047 52.3867 189.46 53.2467 189.514 54.34H187.234C187.194 53.8467 186.994 53.4533 186.634 53.16C186.274 52.8667 185.787 52.72 185.174 52.72C184.574 52.72 184.114 52.8333 183.794 53.06C183.474 53.2867 183.314 53.5867 183.314 53.96C183.314 54.2533 183.42 54.5 183.634 54.7C183.847 54.9 184.107 55.06 184.414 55.18C184.72 55.2867 185.174 55.4267 185.774 55.6C186.574 55.8133 187.227 56.0333 187.734 56.26C188.254 56.4733 188.7 56.7933 189.074 57.22C189.447 57.6467 189.64 58.2133 189.654 58.92C189.654 59.5467 189.48 60.1067 189.134 60.6C188.787 61.0933 188.294 61.48 187.654 61.76C187.027 62.04 186.287 62.18 185.434 62.18ZM202.097 50.98V62H199.817V60.7C199.457 61.1533 198.984 61.5133 198.397 61.78C197.824 62.0333 197.211 62.16 196.557 62.16C195.691 62.16 194.911 61.98 194.217 61.62C193.537 61.26 192.997 60.7267 192.597 60.02C192.211 59.3133 192.017 58.46 192.017 57.46V50.98H194.277V57.12C194.277 58.1067 194.524 58.8667 195.017 59.4C195.511 59.92 196.184 60.18 197.037 60.18C197.891 60.18 198.564 59.92 199.057 59.4C199.564 58.8667 199.817 58.1067 199.817 57.12V50.98H202.097ZM207.385 52.6C207.772 52.0933 208.299 51.6667 208.965 51.32C209.632 50.9733 210.385 50.8 211.225 50.8C212.185 50.8 213.059 51.04 213.845 51.52C214.645 51.9867 215.272 52.6467 215.725 53.5C216.179 54.3533 216.405 55.3333 216.405 56.44C216.405 57.5467 216.179 58.54 215.725 59.42C215.272 60.2867 214.645 60.9667 213.845 61.46C213.059 61.94 212.185 62.18 211.225 62.18C210.385 62.18 209.639 62.0133 208.985 61.68C208.332 61.3333 207.799 60.9067 207.385 60.4V67.24H205.105V50.98H207.385V52.6ZM214.085 56.44C214.085 55.68 213.925 55.0267 213.605 54.48C213.299 53.92 212.885 53.5 212.365 53.22C211.859 52.9267 211.312 52.78 210.725 52.78C210.152 52.78 209.605 52.9267 209.085 53.22C208.579 53.5133 208.165 53.94 207.845 54.5C207.539 55.06 207.385 55.72 207.385 56.48C207.385 57.24 207.539 57.9067 207.845 58.48C208.165 59.04 208.579 59.4667 209.085 59.76C209.605 60.0533 210.152 60.2 210.725 60.2C211.312 60.2 211.859 60.0533 212.365 59.76C212.885 59.4533 213.299 59.0133 213.605 58.44C213.925 57.8667 214.085 57.2 214.085 56.44ZM220.94 52.6C221.327 52.0933 221.853 51.6667 222.52 51.32C223.187 50.9733 223.94 50.8 224.78 50.8C225.74 50.8 226.613 51.04 227.4 51.52C228.2 51.9867 228.827 52.6467 229.28 53.5C229.733 54.3533 229.96 55.3333 229.96 56.44C229.96 57.5467 229.733 58.54 229.28 59.42C228.827 60.2867 228.2 60.9667 227.4 61.46C226.613 61.94 225.74 62.18 224.78 62.18C223.94 62.18 223.193 62.0133 222.54 61.68C221.887 61.3333 221.353 60.9067 220.94 60.4V67.24H218.66V50.98H220.94V52.6ZM227.64 56.44C227.64 55.68 227.48 55.0267 227.16 54.48C226.853 53.92 226.44 53.5 225.92 53.22C225.413 52.9267 224.867 52.78 224.28 52.78C223.707 52.78 223.16 52.9267 222.64 53.22C222.133 53.5133 221.72 53.94 221.4 54.5C221.093 55.06 220.94 55.72 220.94 56.48C220.94 57.24 221.093 57.9067 221.4 58.48C221.72 59.04 222.133 59.4667 222.64 59.76C223.16 60.0533 223.707 60.2 224.28 60.2C224.867 60.2 225.413 60.0533 225.92 59.76C226.44 59.4533 226.853 59.0133 227.16 58.44C227.48 57.8667 227.64 57.2 227.64 56.44ZM236.995 62.18C235.955 62.18 235.015 61.9467 234.175 61.48C233.335 61 232.675 60.3333 232.195 59.48C231.715 58.6133 231.475 57.6133 231.475 56.48C231.475 55.36 231.722 54.3667 232.215 53.5C232.708 52.6333 233.382 51.9667 234.235 51.5C235.088 51.0333 236.042 50.8 237.095 50.8C238.148 50.8 239.102 51.0333 239.955 51.5C240.808 51.9667 241.482 52.6333 241.975 53.5C242.468 54.3667 242.715 55.36 242.715 56.48C242.715 57.6 242.462 58.5933 241.955 59.46C241.448 60.3267 240.755 61 239.875 61.48C239.008 61.9467 238.048 62.18 236.995 62.18ZM236.995 60.2C237.582 60.2 238.128 60.06 238.635 59.78C239.155 59.5 239.575 59.08 239.895 58.52C240.215 57.96 240.375 57.28 240.375 56.48C240.375 55.68 240.222 55.0067 239.915 54.46C239.608 53.9 239.202 53.48 238.695 53.2C238.188 52.92 237.642 52.78 237.055 52.78C236.468 52.78 235.922 52.92 235.415 53.2C234.922 53.48 234.528 53.9 234.235 54.46C233.942 55.0067 233.795 55.68 233.795 56.48C233.795 57.6667 234.095 58.5867 234.695 59.24C235.308 59.88 236.075 60.2 236.995 60.2ZM247.249 52.58C247.582 52.02 248.022 51.5867 248.569 51.28C249.129 50.96 249.789 50.8 250.549 50.8V53.16H249.969C249.075 53.16 248.395 53.3867 247.929 53.84C247.475 54.2933 247.249 55.08 247.249 56.2V62H244.969V50.98H247.249V52.58ZM255.305 52.84V58.94C255.305 59.3533 255.398 59.6533 255.585 59.84C255.785 60.0133 256.118 60.1 256.585 60.1H257.985V62H256.185C255.158 62 254.371 61.76 253.825 61.28C253.278 60.8 253.005 60.02 253.005 58.94V52.84H251.705V50.98H253.005V48.24H255.305V50.98H257.985V52.84H255.305Z" fill="#898989"/>
<defs>
<clipPath id="clip0_3136_1561">
<rect width="60" height="60" fill="white" transform="translate(0.5 5)"/>
</clipPath>
</defs>
</svg>
